<svg width="100" height="77" viewBox="0 0 100 77" fill="none" xmlns="http://www.w3.org/2000/svg">
<path fill-rule="evenodd" clip-rule="evenodd" d="M33.0931 0.301805C32.4685 0.566165 31.6163 1.1936 31.1993 1.69555C30.4972 2.54106 30.3655 2.5405 29.4234 1.6883C28.0297 0.427851 25.7995 0.534376 23.8801 1.9521L22.2777 3.13615L20.8489 1.70838C19.3363 0.196954 18.2 0.220936 15.6655 1.81881C14.7429 2.39996 14.115 2.45963 13.3303 2.03967C11.6587 1.14564 9.85709 1.35813 8.52763 2.60631C7.70271 3.38099 6.16898 3.8729 3.74782 4.14005L0.183051 4.53268L0.0390543 39.9123C-0.0742457 67.8469 0.0435193 75.3862 0.597182 75.7376C0.983407 75.9824 8.08056 76.1983 16.3688 76.2178C24.657 76.2367 36.4614 76.4793 42.6008 76.7571C54.835 77.3098 97.6562 76.8402 98.7892 76.1403C99.3005 75.8246 99.5963 72.6461 99.8586 64.6579C100.187 54.6345 99.9859 45.1398 98.8076 15.1294L98.4136 5.0904L95.2044 4.92309C92.2976 4.77139 91.9153 4.6024 91.1524 3.12722C90.6886 2.23097 89.8145 1.23376 89.2101 0.91028C87.7841 0.147874 85.4762 0.742963 84.509 2.12277C83.7639 3.18579 83.7136 3.17798 82.315 1.78033C80.419 -0.114255 78.8395 -0.0244614 76.8637 2.0893L75.2373 3.82884L74.0876 2.36817C73.4552 1.56505 72.3753 0.907491 71.6882 0.907491C70.414 0.907491 67.9956 2.74797 67.9956 3.71785C67.9956 4.01289 67.7445 4.25382 67.4375 4.25382C67.1305 4.25382 66.8794 3.9164 66.8794 3.50369C66.8794 2.26722 64.9482 0.907491 63.1924 0.907491C61.4633 0.907491 59.0656 2.24547 59.0656 3.21032C59.0656 3.52209 59.7275 3.25662 60.5362 2.62137C62.3931 1.16125 64.1864 1.14787 65.4874 2.584C66.7761 4.00731 66.3413 4.415 63.3899 4.55053C60.3442 4.68996 58.7502 4.07368 56.8225 2.01178C54.6017 -0.364115 52.2391 -0.260936 49.8051 2.31741L47.9482 4.28561L47.1088 2.66431C45.7068 -0.0450975 42.896 -0.486813 41.4159 1.77029L40.4844 3.1908L39.0109 1.78033C37.3689 0.208108 34.8183 -0.429368 33.0931 0.301805ZM33.1126 1.57397C31.9467 2.23431 31.182 3.12332 31.1675 3.83553C31.1553 4.44122 38.8468 4.35087 39.2247 3.74072C39.6751 3.01178 36.8203 0.904145 35.4093 0.924223C34.7602 0.933704 33.7266 1.22595 33.1126 1.57397ZM42.3217 2.02294C40.5926 3.75076 40.9699 4.25382 43.9961 4.25382C47.1172 4.25382 47.7172 3.2951 45.546 1.77586C43.9498 0.65819 43.6657 0.679941 42.3217 2.02294ZM50.8644 2.25439C50.0032 2.99504 49.4568 3.76024 49.6511 3.95433C49.8447 4.14897 51.6899 4.23263 53.7511 4.14116L57.4984 3.97496L56.2878 2.44123C54.7831 0.534376 52.9379 0.470795 50.8644 2.25439ZM17.4024 2.01903C15.3027 2.86565 15.4579 3.57173 17.7926 3.79426C20.6987 4.07145 21.7887 3.42003 20.3086 2.2912C19.0857 1.35869 19.0489 1.35534 17.4024 2.01903ZM25.1593 2.14563C23.0892 3.1434 23.7249 3.96436 26.6964 4.13224C29.5663 4.29342 30.2913 3.60965 28.815 2.13448C28.0085 1.32857 26.8476 1.33248 25.1593 2.14563ZM69.6432 2.72009L68.2892 3.97496L71.0726 4.25382C74.221 4.56949 74.8801 3.9744 73.0361 2.4825C71.4415 1.19249 71.2785 1.20364 69.6432 2.72009ZM77.639 2.16237C76.1348 4.10603 76.2593 4.25382 79.4043 4.25382C82.6258 4.25382 83.1192 3.82995 81.6301 2.34139C80.5786 1.2912 78.3896 1.19249 77.639 2.16237ZM85.6464 2.62527C83.6757 4.17407 84.2344 4.81154 87.563 4.81154C90.6512 4.81154 91.2422 3.84669 89.08 2.33359C87.5016 1.22818 87.4146 1.23599 85.6464 2.62527ZM9.5317 2.39215C8.07722 2.97887 8.92111 3.6961 11.0666 3.6961C13.3219 3.6961 14.0414 2.98445 12.4161 2.36147C11.4115 1.97609 10.5408 1.98557 9.5317 2.39215ZM0.915873 5.24211C0.858386 5.46519 0.795876 21.2677 0.776341 40.3585L0.741179 75.0694L3.53182 74.9372C5.06667 74.8647 13.4805 75.0103 22.2291 75.2613C41.8434 75.8229 93.0874 76.1843 96.3206 75.7844L98.6927 75.4905L98.691 50.3294C98.6899 36.4907 98.5252 20.8499 98.3249 15.5717L97.9604 5.97551L91.0709 5.96659L84.1813 5.95766V7.33691C84.1813 9.12887 83.1873 9.11827 82.7363 7.32129C82.4177 6.05247 82.1185 5.92699 79.4155 5.92699C76.794 5.92699 76.4245 6.06921 76.2671 7.13836C76.0037 8.92363 74.6932 9.11493 74.6932 7.36758C74.6932 5.97886 74.5732 5.92699 71.3444 5.92699H67.9956V7.60015C67.9956 8.52039 67.7445 9.27332 67.4375 9.27332C67.1305 9.27332 66.8794 8.52039 66.8794 7.60015C66.8794 5.93647 66.8609 5.92643 63.5306 5.84333C61.6888 5.79704 59.8715 5.73457 59.492 5.7039C59.1125 5.67322 58.7112 6.15008 58.6007 6.76357C58.2474 8.72062 57.3912 9.05358 57.3912 7.23429V5.52933L53.4436 5.16291C48.9635 4.74685 48.4611 4.90803 48.4611 6.76357C48.4611 7.49419 48.1904 8.25938 47.8595 8.46351C47.4626 8.7089 47.3198 8.19692 47.4409 6.96268L47.6239 5.0904L44.4499 4.9242L41.2758 4.758L41.1011 6.74851C40.8762 9.3118 39.8621 9.33021 39.6371 6.77528L39.4636 4.81154H35.6225H31.7815L31.6096 7.18186C31.4896 8.84053 31.1871 9.55218 30.601 9.55218C30.015 9.55218 29.7125 8.84053 29.5925 7.18186L29.4206 4.81154H26.1042H22.7872V7.04243C22.7872 8.26942 22.5629 9.27332 22.2888 9.27332C21.5275 9.27332 21.1955 7.97773 21.5203 6.27835L21.8133 4.74852L18.8117 4.91918C15.8581 5.08762 15.8056 5.12108 15.4875 7.04243C15.1682 8.96992 14.6916 8.63361 14.3015 6.20585C14.1357 5.17239 13.6395 5.08092 7.57099 4.96324C3.96828 4.89297 0.97336 5.01846 0.915873 5.24211ZM30.0429 7.32129C30.0429 8.08816 30.2941 8.7156 30.601 8.7156C30.908 8.7156 31.1592 8.08816 31.1592 7.32129C31.1592 6.55442 30.908 5.92699 30.601 5.92699C30.2941 5.92699 30.0429 6.55442 30.0429 7.32129ZM12.1828 16.5237C12.1828 16.8383 13.764 17.0814 15.8106 17.0814C17.8573 17.0814 19.4385 16.8383 19.4385 16.5237C19.4385 16.2091 17.8573 15.966 15.8106 15.966C13.764 15.966 12.1828 16.2091 12.1828 16.5237ZM15.113 20.2822C16.8778 20.3926 19.7661 20.3926 21.5315 20.2822C23.2963 20.1718 21.8524 20.0809 18.3222 20.0809C14.7921 20.0809 13.3476 20.1718 15.113 20.2822ZM33.1126 23.7284C21.7547 23.9068 14.451 24.1784 16.8822 24.3318C21.8183 24.643 21.9461 24.7936 21.2708 29.4907L20.97 31.5822H16.2516H11.5331L11.7184 27.677C11.8206 25.5292 11.7419 23.7724 11.5443 23.773C10.9599 23.7746 10.4214 40.9943 10.6111 53.6122L10.7875 65.3244L47.9521 65.4738C68.3925 65.5564 86.0991 65.4181 87.3002 65.1665L89.4836 64.7097L89.3831 45.8297C89.3278 35.4455 89.1414 26.3881 88.9695 25.7021C88.7971 25.0161 88.2144 24.2693 87.6747 24.0429C86.3547 23.4896 58.503 23.3285 33.1126 23.7284ZM22.2291 27.957V31.5822H27.5313H32.8335V27.957V24.3318H27.5313H22.2291V27.957ZM33.3917 27.957V31.5822H38.6939H43.9961V27.957V24.3318H38.6939H33.3917V27.957ZM44.5542 27.957V31.6212L50.2717 31.4623L55.9886 31.3033L55.9925 27.957L55.9959 24.6107L50.2751 24.4517L44.5542 24.2928V27.957ZM56.8331 27.6185C56.8331 29.7635 57.0753 30.9782 57.5307 31.1159C57.9147 31.2319 60.3007 31.2397 62.8329 31.1332L67.4375 30.9397V27.6357V24.3318H62.1353H56.8331V27.6185ZM67.9956 27.3474C67.9956 29.0267 68.2094 30.5331 68.4706 30.6943C68.7324 30.856 71.5068 30.8321 74.6362 30.6413L80.3269 30.295L80.1611 27.4528L79.9954 24.6107L73.9955 24.4523L67.9956 24.2939V27.3474ZM80.8326 27.3993V30.4667H84.7395H88.6464V28.0685C88.6464 26.7495 88.345 25.3692 87.9766 25.0011C87.6083 24.633 85.8501 24.3318 84.0697 24.3318H80.8326V27.3993ZM73.1583 31.464L67.9956 31.624V35.2286C67.9956 37.513 68.2239 38.8326 68.6196 38.8326C68.9629 38.8326 70.1176 38.0657 71.1853 37.1287C73.3698 35.2124 74.7116 35.1795 75.5231 37.0233C75.8262 37.7115 76.3748 38.2748 76.7426 38.2748C78.3818 38.2748 80.2086 37.117 80.4346 35.9347C80.6266 34.9324 80.6975 35.0345 80.7567 36.397C80.8421 38.3602 81.2461 38.5537 85.7162 38.7723L88.6464 38.9151V34.9369V30.9587L83.4837 31.131C80.6439 31.2258 75.9981 31.3753 73.1583 31.464ZM59.7632 31.9932L56.8331 32.1985V35.7941V39.3903L60.0423 39.3842C61.8071 39.3808 64.1937 39.2224 65.3445 39.0322L67.4375 38.6864V35.1343V31.5822L65.0655 31.6854C63.7605 31.7423 61.3745 31.8806 59.7632 31.9932ZM12.0433 32.5242C11.2312 32.7367 11.0666 33.4333 11.0666 36.6642V40.5492L15.9502 40.3881L20.8338 40.2269L20.9979 36.1834L21.162 32.1399L17.091 32.2046C14.8518 32.2403 12.5802 32.3842 12.0433 32.5242ZM22.2291 36.0228V39.948H27.557H32.8843L32.7197 36.1834L32.5545 32.4188L27.3918 32.2581L22.2291 32.0981V36.0228ZM33.764 32.5119C33.5591 32.716 33.3917 34.4729 33.3917 36.416V39.948H36.9497C38.9065 39.948 41.2925 39.7913 42.252 39.5994C43.9866 39.2525 43.9961 39.2313 43.9961 35.6954V32.1399H39.0662C36.3542 32.1399 33.9682 32.3072 33.764 32.5119ZM44.5542 35.7651V39.3903H50.1355H55.7168V35.7651V32.1399H50.1355H44.5542V35.7651ZM72.3211 37.2051C70.8175 38.0785 71.1602 38.8326 73.0595 38.8326C74.3611 38.8326 74.7317 38.6084 74.5944 37.9028C74.3661 36.7249 73.5685 36.4801 72.3211 37.2051ZM69.1292 40.8895C68.1502 42.1326 67.9772 43.0116 68.1123 46.0484L68.2747 49.7081L70.9487 49.8788C75.7006 50.1828 80.5144 45.9664 80.1712 41.8002C80.0065 39.8019 79.8737 39.6602 78.0419 39.5286C76.2464 39.3998 75.9981 39.5777 74.9722 41.7305C73.8537 44.0779 71.1228 46.6055 70.4413 45.924C69.9228 45.4059 71.2517 42.4355 72.5114 41.296C74.0056 39.9452 73.8403 39.3903 71.9433 39.3903C70.8348 39.3903 69.9295 39.8722 69.1292 40.8895ZM80.9208 40.5057C80.9208 41.2726 81.0475 41.5866 81.2021 41.2029C81.3572 40.8197 81.3572 40.1923 81.2021 39.8086C81.0475 39.4254 80.9208 39.7389 80.9208 40.5057ZM81.6837 41.2029C81.4683 42.1995 81.1674 44.5844 81.0145 46.5012L80.7371 49.987L84.2734 50.0835L87.8092 50.1794L84.1813 50.5018L80.5535 50.8236L80.2225 53.6122L79.8916 56.4008L79.8039 53.4845L79.7163 50.5687L73.856 50.6133L67.9956 50.6585V53.9836V57.3088L78.1815 56.9206C83.7834 56.7076 88.2172 56.6947 88.0335 56.8933C87.8499 57.0918 83.3291 57.4103 77.9872 57.601C72.6454 57.7918 68.1899 58.0193 68.086 58.1063C67.9828 58.1933 67.7595 59.7906 67.5899 61.6551L67.2823 65.0455L71.6854 65.0427C74.1071 65.0416 78.9109 64.8782 82.3602 64.6791L88.6319 64.3182L88.6229 51.8543L88.614 39.3903H85.345C82.109 39.3903 82.0716 39.4087 81.6837 41.2029ZM48.3216 40.3618L44.5542 40.5565V44.9932V49.4293H50.1355H55.7168V44.6887V39.948L53.9029 40.0573C52.9055 40.1176 50.3939 40.2542 48.3216 40.3618ZM56.8331 44.6887V49.4293H60.6959H64.5581L64.9499 47.6167C65.1648 46.62 65.8128 44.8727 66.3893 43.7349C68.2401 40.0813 68.09 39.948 62.1353 39.948H56.8331V44.6887ZM23.27 40.914C21.8468 41.2358 20.8879 49.0696 22.2163 49.5224C22.5166 49.6245 25.0281 49.6278 27.7976 49.5291L32.8335 49.3501V45.0634V40.7762L28.5081 40.7422C26.1288 40.7233 23.7718 40.8008 23.27 40.914ZM33.764 40.8777C33.5591 41.0819 33.3917 43.0897 33.3917 45.3395V49.4293H38.3551C44.0927 49.4293 43.9961 49.5208 43.9961 44.0852V40.5057H39.0662C36.3542 40.5057 33.9682 40.6731 33.764 40.8777ZM11.2993 41.8192C11.1397 42.2352 11.085 44.18 11.1776 46.1415L11.3456 49.7081H16.0897H20.8338L20.9968 45.3858L21.1597 41.0635H16.3749C12.8632 41.0635 11.5125 41.2648 11.2993 41.8192ZM72.2458 42.996C71.7502 43.7517 71.3444 44.5358 71.3444 44.7372C71.3444 45.3133 73.0204 43.7762 73.6271 42.6429C74.452 41.1019 73.2934 41.3981 72.2458 42.996ZM65.8178 46.7238C65.0108 49.0378 65.0431 49.4293 66.0422 49.4293C66.6466 49.4293 66.8794 48.8097 66.8794 47.1984C66.8794 44.5091 66.6293 44.3975 65.8178 46.7238ZM77.8672 47.6474C75.9674 49.6289 75.9847 49.987 77.9822 49.987C79.6242 49.987 80.2744 49.1828 80.2744 47.1527C80.2744 45.6786 79.627 45.8113 77.8672 47.6474ZM24.9411 50.3975L21.7932 50.5966L21.4142 53.6284C21.2055 55.296 21.1542 56.8531 21.2993 57.0885C21.4449 57.3238 23.9113 57.4806 26.7801 57.4365L31.9964 57.3573L32.3943 54.369C33.0278 49.6167 33.4776 49.8565 24.9411 50.3975ZM33.1947 53.3908C32.9988 55.2625 32.9781 57.0193 33.1483 57.2948C33.4938 57.8537 41.1753 57.9859 42.555 57.4566C43.2326 57.1967 43.438 56.2893 43.438 53.5525V49.987H38.4941H33.5507L33.1947 53.3908ZM44.5464 52.3372C44.5425 53.6518 44.3874 55.2926 44.2026 55.9825C43.8689 57.2262 43.918 57.2374 49.8179 57.2374H55.7698L55.6041 53.7516L55.4377 50.2659L49.996 50.1064L44.5542 49.9469L44.5464 52.3372ZM56.6796 50.3267C56.4569 50.5486 56.2749 52.1945 56.2749 53.9842V57.2374H61.5771H66.8794V53.8911V50.5447L63.112 50.5369C61.0397 50.533 58.8362 50.393 58.2144 50.2257C57.5927 50.059 56.9017 50.1041 56.6796 50.3267ZM11.4595 50.8961C11.2435 51.1119 11.0666 52.7522 11.0666 54.5419V57.7951H15.4986C17.9366 57.7951 20.0496 57.6033 20.1942 57.369C20.3393 57.1342 20.5318 55.5659 20.6217 53.8833L20.7858 50.8236L16.3191 50.6635C13.8622 50.5754 11.6755 50.6797 11.4595 50.8961ZM56.8347 58.3545C56.5819 58.509 56.2649 59.3874 56.1298 60.3065L55.8842 61.978L55.8005 60.1654L55.7168 58.3528H49.8565H43.9961V61.4203V64.4878L51.6704 64.4917C55.8915 64.4939 61.0397 64.6556 63.112 64.8514L66.8794 65.2067V61.4649V57.7237L62.0862 57.8988C59.4501 57.9953 57.087 58.2 56.8347 58.3545ZM11.3049 59.0946C11.1352 59.5369 11.0749 60.9936 11.1709 62.3327C11.3188 64.3913 11.5175 64.746 12.4619 64.6333C13.0758 64.5603 20.3097 64.4917 28.5371 64.4822L43.4955 64.4638L43.3275 61.548L43.1589 58.6317H38.1358H33.1126L32.7777 61.1414L32.4429 63.6512L32.3591 60.9819L32.2754 58.3127L26.8337 58.4722L21.3919 58.6317L21.2094 60.3049C21.1089 61.2251 20.7757 62.229 20.4682 62.5357C20.0954 62.9077 20.0379 62.3974 20.2941 61.002C20.5056 59.852 20.4626 58.8994 20.1981 58.8855C19.9341 58.8715 17.8941 58.7321 15.6655 58.5759C12.4613 58.3506 11.5488 58.4594 11.3049 59.0946ZM80.1556 60.026C80.2906 60.9462 80.4983 61.6992 80.6166 61.6992C80.7355 61.6992 80.8326 60.9462 80.8326 60.026C80.8326 59.1058 80.625 58.3528 80.371 58.3528C80.1171 58.3528 80.0205 59.1058 80.1556 60.026Z" fill="black"/>
</svg>
