<svg width="467" height="291" viewBox="0 0 467 291" fill="none" xmlns="http://www.w3.org/2000/svg">
<path opacity="0.2" fill-rule="evenodd" clip-rule="evenodd" d="M463.57 142.644C458.172 138.614 456.173 137.997 448.037 137.859L440.113 137.723L440.714 132.069C441.164 127.838 440.914 125.412 439.721 122.429C437.863 117.787 432.586 112.769 429.56 112.769C427.541 112.769 427.469 113.051 427.804 119.693C428.213 127.787 426.917 131.091 421.803 134.991C419.563 136.7 416.92 137.685 413.758 137.989L409.049 138.441L412.62 131.603C415.95 125.229 416.192 124.215 416.192 116.649C416.192 106.977 414.661 103.188 408.08 96.5817C401.493 89.9676 397.647 89.1343 375.163 89.4459C353.697 89.7435 351.685 89.1832 342.402 80.3299L336.936 75.1151L335.688 77.4456C333.796 80.9796 334.247 87.7387 336.633 91.5985C339.316 95.9404 346.337 101.264 350.382 102.023C354.073 102.715 354.337 103.364 351.62 105.061C350.546 105.732 349.041 107.781 348.274 109.614C347.031 112.59 347.042 113.191 348.365 115.213C350.483 118.445 354.771 118.544 360.047 115.48C361.796 114.465 363.34 113.758 363.48 113.908C363.619 114.059 364.349 115.665 365.101 117.478C368.053 124.585 375.641 130.665 381.549 130.657C389.224 130.647 396.01 119.904 391.895 114.277C390.78 112.752 390.556 112.736 389.426 114.097C386.386 117.759 378.997 114.417 378.997 109.381C378.997 106.245 383.751 101.723 387.858 100.953C394.72 99.6656 402.345 106.176 403.236 114.083C404.231 122.916 397.407 134.36 389.135 137.731C383.176 140.158 371.52 139.973 364.696 137.343C360.422 135.695 357.857 133.709 351.984 127.501C342.445 117.419 334.897 107.458 330.12 98.6448C325.344 89.8358 324.98 84.394 328.695 77.4052C330.991 73.0868 331.034 72.7685 329.456 71.6159C325.51 68.7289 318.162 70.6074 313.504 75.6942L310.426 79.0549L303.985 75.2949C295.467 70.3221 290.613 68.8682 275.357 66.7203C260.887 64.6817 255.984 62.7965 249.13 56.6353C244.029 52.0486 240.989 46.4044 239.425 38.6123C237.454 28.8023 241.339 20.739 250.15 16.3481C257.236 12.8179 264.375 12.9243 269.5 16.6372C274.214 20.0516 277.715 26.8135 276.837 30.808C276.497 32.3551 274.947 34.6913 273.392 36.0002C267.151 41.2517 260.35 37.0595 260.35 27.9604C260.35 25.7212 259.948 25.1977 258.231 25.2005C255.133 25.2052 250.086 28.5942 249.027 31.3795C246.508 38.0049 249.42 46.1454 255.827 50.3847C261.109 53.8801 270.528 54.1108 275.091 50.8565C278.876 48.1568 279.182 48.1916 279.187 51.3273C279.189 52.752 280.03 55.2944 281.056 56.9772C283.442 60.8916 286.457 60.9735 290.461 57.2333L293.463 54.4281L295.718 57.1071C298.357 60.2437 305.15 63.3662 311.321 64.2805C317.603 65.2099 327.93 63.3314 337.856 59.4527C347.625 55.6353 351.782 55.2709 355.341 57.9207C360.864 62.0319 360.163 69.4539 354.252 69.4539C352.532 69.4539 350.598 68.9275 349.955 68.2844C349.025 67.3541 348.606 67.4011 347.898 68.5198C346.515 70.7073 346.823 73.4201 348.827 76.7055C353.72 84.7311 365.706 84.443 370.671 76.181C371.805 74.294 372.838 72.6056 372.967 72.4305C373.096 72.2553 374.787 73.8674 376.727 76.0134C381.903 81.7433 387.524 84.7377 393.103 84.7377C397.689 84.7377 402.727 82.5164 405.373 79.3299C406.341 78.1632 406.195 77.9287 404.5 77.9287C400.26 77.9287 394.892 73.8608 381.586 60.5676C374.037 53.0251 367.102 46.8545 366.176 46.8545C364.867 46.8545 365.257 46.0654 367.922 43.3233C372.117 39.004 373.605 35.4154 372.455 32.3871C370.782 27.9896 363.958 27.7053 356.819 31.7345L351.908 34.5058L351.503 28.9106C350.957 21.3539 345.821 13.6814 338.977 10.1973C332.27 6.7829 322.128 6.78667 315.436 10.2067C307.203 14.413 302.555 24.5611 305.551 31.792C307.984 37.6669 316.054 41.763 320.504 39.3807L322.474 38.327L320.603 34.8363C318.078 30.1262 318.232 28.6573 321.655 24.7589C325.809 20.0271 329.591 20.1429 334.106 25.1402C338.365 29.855 339.264 34.2393 337.122 39.8487C333.526 49.266 320.009 54.5317 310.125 50.3659C302.669 47.2227 295.541 38.5502 293.309 29.9049C292.707 27.5744 291.422 24.3022 290.454 22.6336C288.519 19.2992 288.623 19.125 293.095 18.1655C296.783 17.3745 301.328 13.7416 303.229 10.0655C304.615 7.38367 305.105 1.52477 304.031 0.451293C303.714 0.134901 301.217 1.13775 298.483 2.6811C290.902 6.95992 285.716 7.20475 276.657 3.71126C272.542 2.12365 267.009 0.537925 264.364 0.187634C256.064 -0.914088 244.548 2.93252 237.426 9.18691C235.655 10.7416 233.964 12.0137 233.67 12.0137C233.374 12.0137 230.464 10.1672 227.202 7.91098C218.865 2.14342 213.32 0.263908 204.793 0.31664C199.18 0.350539 196.379 0.924941 191.139 3.11614C182.014 6.93262 175.944 6.88366 168.283 2.93346C162.133 -0.23893 161.478 -0.0327148 161.478 5.07475C161.478 10.3508 167.272 16.9385 172.99 18.1655C174.686 18.5289 176.336 18.98 176.657 19.1664C177.618 19.7267 170.053 37.5972 167.338 41.1792C163.832 45.8055 161.651 47.6088 156.853 49.847C148.881 53.5665 139.11 51.6493 132.534 45.0739C128.25 40.7894 126.982 35.503 128.984 30.2618C132.104 22.094 139.135 19.1194 143.948 23.9321C147.557 27.5414 148.033 30.5481 145.675 34.8533L143.694 38.4692L145.991 39.5163C149.211 40.9824 154.703 39.1848 158.221 35.5143C160.71 32.9163 161.007 31.969 161.007 26.628C161.007 21.5064 160.602 20.0751 158.182 16.6344C151.039 6.4778 133.846 4.48435 123.162 12.574C118.845 15.8434 114.087 25.9124 114.552 30.7948C114.752 32.8946 114.686 34.6131 114.404 34.6131C114.122 34.6131 112.229 33.4841 110.198 32.1037C106.029 29.2712 98.8499 28.1459 95.7002 29.8315C94.1399 30.6658 93.6794 31.7892 93.6794 34.7572C93.6794 37.9908 94.282 39.2037 97.4695 42.3911C99.5534 44.475 101.142 46.2744 101.001 46.3903C100.858 46.5051 99.6824 47.137 98.3876 47.7943C97.0928 48.4515 90.8422 54.4036 84.4974 61.0215C73.1431 72.8636 66.2757 77.8675 61.2436 77.9673C59.5825 78.0003 59.7746 78.4033 62.6005 80.8177C70.7137 87.751 79.3542 86.3715 88.8874 76.6189L93.041 72.3692L95.4469 76.0803C98.3047 80.4872 102.373 82.6369 107.857 82.6369C111.312 82.6369 112.36 82.1143 115.483 78.8308C119.096 75.0322 120.065 71.4879 118.266 68.6488C117.598 67.5951 117.037 67.6479 115.048 68.9511C113.173 70.179 112.212 70.3005 110.714 69.4991C103.789 65.7928 107.908 56.2709 116.436 56.2709C118.455 56.2709 123.377 57.5139 127.373 59.0337C138.222 63.1572 142.352 64.0668 150.649 64.1609C159.003 64.2551 166.003 61.8869 170.024 57.6071C172.695 54.7643 173.255 54.7709 176.715 57.6834C178.254 58.9781 180.304 60.0375 181.271 60.0375C183.428 60.0375 185.696 56.9517 186.951 52.3094L187.895 48.8178L192.247 51.1324C201.483 56.043 213.485 51.994 216.971 42.7913C218.435 38.9287 218.2 32.5274 216.506 30.1093C214.773 27.6328 210.388 25.1967 207.665 25.1967C206.081 25.1967 205.735 25.7975 205.735 28.5396C205.735 37.3486 198.948 41.263 192.736 36.036C191.203 34.7469 189.721 32.5218 189.442 31.0923C188.715 27.3794 191.578 21.5648 196.171 17.4282C199.753 14.2012 200.563 13.897 205.569 13.897C212.927 13.897 220.188 17.528 224.091 23.1609C226.646 26.8474 226.92 27.951 226.898 34.4888C226.879 40.4231 226.413 42.6755 224.323 46.9468C218.522 58.8039 208.661 64.5499 189.727 67.1064C175.692 69.0001 168.864 71.1291 161.209 75.9965L155.51 79.619L153.531 76.6556C149.973 71.324 140.79 68.5725 136.653 71.5971C135.112 72.7243 135.166 73.0811 137.524 77.2997C143.34 87.7058 139.251 97.9979 119.879 121.715C111.107 132.455 103.867 137.538 95.1936 139.049C88.3591 140.239 79.7544 139.329 75.1611 136.93C69.0517 133.741 63.8586 125.564 62.9225 117.663C62.4423 113.61 62.7257 112.258 64.7964 108.725C67.9302 103.378 71.3653 101.156 76.501 101.156C80.9785 101.156 84.9259 103.467 86.812 107.192C89.5446 112.59 81.2469 118.27 76.6743 114.132C75.0029 112.619 74.856 112.66 73.8192 114.935C71.4519 120.132 75.9436 128.776 81.7714 130.24C88.2715 131.871 97.3085 126.166 100.749 118.26C101.726 116.017 102.576 114.082 102.639 113.961C102.702 113.839 104.403 114.58 106.42 115.609C116.462 120.728 123.221 113.915 115.791 106.16C114.506 104.818 113.454 103.493 113.454 103.216C113.454 102.937 115.062 102.228 117.027 101.638C124.505 99.3982 132.212 90.1136 132.266 83.281C132.284 81.0484 131.105 77.6133 129.813 76.132C129.629 75.9211 126.945 77.9523 123.848 80.6463C113.857 89.3358 112.277 89.7463 90.119 89.4083C71.5856 89.1258 70.8737 89.1851 66.0252 91.4046C55.8131 96.0798 50.2847 104.255 49.667 115.594C49.3007 122.315 49.4693 123.038 53.1436 130.548L57.0062 138.439L52.3121 137.988C46.586 137.437 41.3721 133.785 39.3202 128.889C38.2628 126.365 38.0424 123.695 38.4718 118.594C39.0434 111.789 39.0245 111.713 36.9388 112.315C30.3049 114.23 25.4028 121.722 25.5506 129.719C25.6033 132.568 25.8049 135.534 25.9988 136.311C26.287 137.461 25.431 137.663 21.3857 137.399C14.6916 136.962 7.89386 138.728 3.2139 142.118C-0.587524 144.871 -0.624237 144.954 1.07825 146.836C4.58682 150.716 9.92685 152.593 18.1154 152.826C22.3895 152.947 25.9216 153.313 25.9649 153.638C26.0073 153.963 25.7597 155.902 25.4141 157.948C24.4565 163.613 27.0262 171.25 31.0903 174.818C32.9227 176.426 35.3597 177.743 36.5075 177.743C38.4925 177.744 38.5933 177.367 38.5933 169.974C38.5933 160.933 40.4154 157.355 46.6387 154.18C49.9166 152.509 56.9554 151.572 56.9554 152.808C56.9554 153.077 55.8602 155.032 54.5212 157.153C44.7545 172.625 49.3111 190.825 64.868 198.484L70.7899 201.4L90.0032 201.107C108.37 200.826 109.424 200.908 113.925 202.974C116.514 204.163 121.058 207.527 124.02 210.451L129.408 215.767L130.847 212.323C131.639 210.427 132.277 207.91 132.266 206.728C132.205 200.374 124.232 191.032 117.027 188.874C115.062 188.285 113.454 187.608 113.454 187.37C113.454 187.132 114.725 185.489 116.279 183.719C121.104 178.224 119.354 173.032 112.681 173.038C110.775 173.04 107.792 173.91 106.05 174.973C104.309 176.034 102.803 176.774 102.704 176.617C102.605 176.459 101.734 174.515 100.769 172.295C97.9714 165.865 90.3761 159.852 85.0502 159.852C81.3119 159.852 76.663 162.883 74.7995 166.535C72.7034 170.645 72.58 171.904 73.9284 175.452C74.8324 177.829 75.0029 177.893 76.5923 176.455C80.7638 172.68 87.0879 175.801 87.0879 181.636C87.0879 186.316 78.9229 191.085 73.6902 189.46C67.5083 187.54 62.5977 180.797 62.6146 174.249C62.625 169.987 66.4386 161.372 69.9622 157.649C77.3494 149.843 92.1888 148.604 104.739 154.744C112.673 158.627 129.623 179.098 137.128 193.865C141.059 201.598 141.182 206.667 137.596 213.085C135.173 217.419 135.114 217.789 136.653 218.915C140.665 221.848 149.26 219.489 153.296 214.345C155.425 211.631 156.027 211.336 157.455 212.311C167.094 218.889 173.161 221.004 189.273 223.401C206.496 225.963 211.997 228.261 218.84 235.748C226.513 244.144 229.398 256.572 225.61 264.912C221.617 273.705 208.743 279.151 199.911 275.785C196.64 274.538 192.495 270.045 190.502 265.588C188.928 262.067 188.875 261.274 190.024 258.525C191.671 254.583 193.472 253.112 197.433 252.47C202.281 251.682 204.918 254.313 205.515 260.534L205.994 265.52L209.396 264.979C214.411 264.183 217.976 259.843 217.976 254.533C217.976 246.919 214.857 241.969 208.089 238.846C202.93 236.465 197.526 236.616 192.242 239.291L187.846 241.517L186.892 237.968C185.426 232.527 183.036 230.06 179.974 230.828C178.579 231.178 176.585 232.317 175.544 233.358C173.514 235.388 173.152 235.29 168.069 231.311C158.971 224.189 143.908 224.306 127.128 231.63C119.744 234.853 114.673 235.257 111.089 232.908C104.184 228.384 107.697 217.889 114.869 221.61C117.017 222.724 117.696 222.761 118.31 221.793C120.085 218.996 119.065 215.447 115.369 211.562C111.688 207.693 111.558 207.643 106.272 208.082C101.498 208.477 100.528 208.935 97.4356 212.25C95.5251 214.299 93.7877 216.496 93.5749 217.135C93.3498 217.811 90.8385 216.015 87.5484 212.825C80.7328 206.215 76.1366 204.462 69.8059 206.055C67.5027 206.635 64.1994 208.325 62.464 209.809C59.5034 212.342 59.4422 212.509 61.4658 212.545C66.1561 212.629 71.9576 216.989 84.8477 230.116C92.1606 237.563 98.8885 243.658 99.7982 243.658C101.044 243.658 100.492 244.699 97.5656 247.874C94.3668 251.345 93.6794 252.754 93.6794 255.845C93.6794 258.593 94.1671 259.861 95.5005 260.574C98.8565 262.37 104.154 261.663 109.362 258.724C112.115 257.17 114.558 255.899 114.793 255.899C115.027 255.899 114.986 257.336 114.701 259.093C114.065 263.01 115.444 267.397 119.146 273.236C122.469 278.474 129.266 282.089 137.366 282.925C150.895 284.322 162.408 274.388 161.249 262.319C160.45 254.013 151.676 247.869 145.406 251.225C143.611 252.185 143.613 252.26 145.542 256.042C147.82 260.506 147.414 263.457 144.062 266.809C140.592 270.279 136.601 269.852 132.298 265.548C125.513 258.764 126.637 249.165 134.878 243.495C145.783 235.992 156.073 237.112 164.978 246.774C169.393 251.564 170.889 254.235 173.257 261.549C174.179 264.398 175.506 267.564 176.209 268.586C178.052 271.268 177.859 271.6 174.102 272.209C167.798 273.233 161.478 279.855 161.478 285.438C161.478 290.501 162.144 290.745 167.896 287.79C176.202 283.522 181.143 283.357 190.198 287.043C204.188 292.738 215.587 291.151 228.436 281.72L233.042 278.339L237.515 281.596C251.166 291.538 263.372 292.974 277.865 286.339C284.691 283.213 291.109 283.67 298.428 287.8C301.193 289.36 303.714 290.377 304.031 290.061C304.348 289.744 304.607 287.725 304.607 285.573C304.607 280.596 299.721 274.46 294.47 272.845C292.535 272.251 290.376 271.579 289.67 271.353C288.707 271.045 288.649 270.627 289.438 269.676C290.018 268.98 291.742 264.944 293.271 260.708C294.801 256.473 296.911 251.8 297.961 250.326C300.754 246.404 306.336 241.744 310.188 240.121C320.01 235.98 333.537 241.275 337.122 250.664C339.264 256.273 338.365 260.657 334.106 265.372C329.591 270.369 325.809 270.485 321.655 265.753C318.232 261.855 318.078 260.386 320.603 255.676L322.474 252.185L320.504 251.132C317.952 249.765 312.991 250.722 309.863 253.183C299.659 261.208 305.129 277.606 319.449 281.915C325.007 283.588 329.483 283.548 335.466 281.771C341.811 279.887 345.059 277.02 348.798 270.008C351.234 265.437 351.801 263.381 351.537 260.072C351.315 257.273 351.576 255.899 352.334 255.899C352.954 255.899 353.727 256.329 354.052 256.854C355.166 258.656 361.973 261.549 365.07 261.536C371.396 261.509 372.406 260.784 372.406 256.263C372.406 252.821 371.821 251.489 368.874 248.217C366.2 245.248 365.686 244.194 366.756 243.869C367.533 243.633 374.158 237.346 381.478 229.898C394.374 216.777 399.849 212.724 404.892 212.566C406.482 212.516 406.262 212.069 403.485 209.695C395.988 203.288 388.095 204.104 379.136 212.212C376.048 215.006 373.312 217.292 373.056 217.292C372.801 217.292 371.762 215.885 370.747 214.166C368.621 210.562 363.632 207.874 359.08 207.879C352.496 207.887 345.942 214.907 347.336 220.46C347.878 222.617 348.213 222.785 350.35 221.973C358.303 218.949 362.494 225.465 356.47 231.489C352.656 235.303 347.817 235.18 337.532 231.008C320.178 223.969 304.858 224.732 295.935 233.077L293.383 235.464L290.112 232.969C288.313 231.597 285.96 230.475 284.882 230.475C282.677 230.475 279.192 235.421 279.187 238.557C279.181 241.581 278.538 241.668 273.825 239.283C271.312 238.01 267.812 237.076 265.605 237.088C261.056 237.114 253.377 241.054 250.644 244.765C248.442 247.753 247.536 255.316 248.944 258.96C250.08 261.896 255.065 265.307 258.231 265.312C260.031 265.315 260.35 264.813 260.35 261.973C260.35 253.135 267.138 249.25 273.392 254.512C277.357 257.848 277.945 261.506 275.369 266.826C272.272 273.223 267.083 276.615 260.393 276.615C250.695 276.615 242.437 270.867 239.652 262.177C237.119 254.276 241.602 240.592 248.87 234.039C255.552 228.013 260.99 225.898 275.209 223.794C290.993 221.458 295.697 220.056 303.985 215.217L310.426 211.457L313.504 214.818C318.13 219.869 325.527 221.789 329.38 218.94C330.855 217.849 330.799 217.423 328.618 213.131C324.888 205.788 325.341 200.816 330.622 191.128C335.535 182.117 351.598 161.581 356.897 157.54C365.184 151.219 379.229 149.036 388.575 152.616C401.006 157.378 407.359 174.54 400.177 183.958C395.289 190.365 388.448 191.338 382.057 186.538C378.433 183.815 377.941 179.741 380.88 176.801C383.138 174.543 387.701 174.337 389.426 176.415C390.556 177.777 390.78 177.761 391.895 176.235C396.07 170.525 389.207 159.852 381.361 159.852C375.63 159.852 368.011 166.03 365.101 173.035C364.349 174.847 363.643 176.43 363.533 176.552C363.421 176.673 361.682 175.932 359.665 174.904C355.96 173.014 351.155 172.486 349.227 173.755C346.231 175.729 347.288 182.014 351.157 185.224C353.286 186.992 352.983 187.874 350.021 188.525C346.349 189.331 338.498 195.494 336.26 199.327C334.001 203.194 333.706 211.012 335.742 213.047C336.933 214.238 337.822 213.798 342.75 209.583C352.599 201.156 353.772 200.857 377.114 200.834C396.157 200.814 397.59 200.69 401.235 198.74C407.546 195.364 410.731 192.137 413.783 186.029C418.396 176.797 417.536 166.036 411.447 156.811C410.172 154.881 409.13 153.026 409.13 152.689C409.13 152.353 411.28 152.286 413.908 152.538C423.973 153.505 429.562 161.714 427.864 173.035C427.514 175.365 427.402 177.565 427.616 177.922C428.399 179.232 433.642 176.545 436.373 173.434C439.933 169.38 441.429 163.873 440.66 157.653L440.058 152.789L447.9 152.719C456.176 152.644 461.363 150.866 464.982 146.863C466.649 145.02 466.614 144.916 463.57 142.644ZM350.042 140.193C346.545 137.524 341.412 133.564 338.635 131.39C334.182 127.907 332.896 127.397 327.763 127.07C324.562 126.866 320.29 127.155 318.272 127.712C316.253 128.27 314.435 128.561 314.233 128.358C314.03 128.157 313.635 126.274 313.353 124.174C312.893 120.74 313.176 120.02 316.163 117.033C317.99 115.206 320.375 113.711 321.463 113.711C322.55 113.711 323.44 113.124 323.44 112.406C323.44 109.783 315.642 99.5253 308.767 93.1042C297.073 82.184 286.825 78.3016 271.696 79.0634C261.499 79.5756 256.349 81.8073 249.46 88.6964C237.875 100.28 236.774 113.099 246.122 127.561C251.02 135.14 256.245 138.286 264.964 138.91C276.336 139.724 286.852 134.826 291.015 126.776C295.044 118.983 290.583 109.042 281.794 106.228C278.797 105.268 277.875 105.347 275.478 106.763C269.858 110.082 269.604 117.444 275.008 120.336C277.923 121.896 277.915 123.45 274.979 125.373C271.231 127.829 264.803 127.35 261.236 124.349C252.377 116.895 254.072 102.067 264.588 95.0186C269.211 91.9196 269.45 91.8688 277.817 92.2285C284.974 92.5364 287.032 93.0016 290.672 95.1344C299.603 100.368 306.52 111.507 306.468 120.574C306.449 123.884 305.126 127.98 301.167 136.987C300.779 137.869 303.129 138.004 311.345 137.57C323.596 136.923 331.698 138.453 337.981 142.601L341.693 145.051L338.923 147.268C333.604 151.527 327.851 152.789 313.778 152.789C305.483 152.789 300.973 153.128 301.245 153.731C304.831 161.661 306.45 166.686 306.468 169.938C306.52 179.142 298.716 191.42 290.194 195.546C273.324 203.712 255.642 195.569 255.642 179.634C255.642 170.001 260.841 163.618 268.687 163.618C275.928 163.618 279.785 167.62 275.008 170.177C271.953 171.811 270.149 176.251 271.264 179.39C271.736 180.722 273.692 182.617 275.629 183.62C278.564 185.14 279.654 185.267 282.301 184.393C288.21 182.444 292.366 176.493 292.366 169.986C292.366 163.675 288.287 157.936 281.396 154.552C276.569 152.182 274.839 151.848 267.412 151.848C259.901 151.848 258.446 152.137 254.612 154.39C249.566 157.357 246.111 161.585 242.773 168.874C239.697 175.594 239.126 180.127 240.568 186.373C242.175 193.329 245.354 198.491 251.163 203.578C259.817 211.154 270.469 213.347 285.366 210.618C297.035 208.481 310.63 198.204 319.838 184.56L324.452 177.723L322.001 176.792C320.654 176.279 319.192 175.86 318.755 175.86C318.316 175.86 316.817 174.503 315.421 172.845C313.331 170.36 312.971 169.189 313.375 166.176C313.645 164.165 314.019 162.368 314.206 162.18C314.394 161.992 316.231 162.229 318.288 162.706C320.345 163.183 324.405 163.583 327.31 163.596C333.067 163.62 336.353 161.941 343.686 155.23C345.757 153.335 349.464 150.399 351.925 148.709C354.385 147.02 356.398 145.503 356.398 145.34C356.398 145.178 353.538 142.861 350.042 140.193ZM240.057 66.5894L232.946 60.7795L227.109 65.7467C223.899 68.4784 220.734 71.195 220.078 71.7826C219.142 72.6197 220.457 74.4267 226.153 80.1218L233.423 87.3913L240.295 80.5644C244.075 76.81 247.167 73.4371 247.167 73.0689C247.167 72.7007 243.967 69.7854 240.057 66.5894ZM240.34 210.004L233.513 203.234L226.172 210.422C220.355 216.117 219.085 217.833 220.052 218.688C220.723 219.282 223.913 222.001 227.14 224.73L233.01 229.691L240.088 223.835C243.982 220.615 247.167 217.709 247.167 217.377C247.167 217.045 244.095 213.728 240.34 210.004ZM240.836 141.338C238.362 139.322 235.659 137.155 234.83 136.521C233.568 135.558 232.3 136.144 227.061 140.109C223.619 142.716 220.801 145.008 220.801 145.202C220.801 145.396 223.584 147.742 226.985 150.414L233.17 155.274L238.228 151.371C245.997 145.378 245.962 145.514 240.836 141.338ZM225.151 101.359C222.336 93.4818 215.318 85.6389 207.476 81.6058C199.061 77.279 181.035 78.2847 170.045 83.6944C162.871 87.2265 151.256 98.207 146.062 106.368C142.118 112.564 141.893 113.711 144.622 113.711C145.71 113.711 148.095 115.206 149.922 117.033C152.909 120.02 153.192 120.74 152.732 124.174C152.45 126.274 152.05 128.161 151.843 128.368C151.636 128.576 150.013 128.328 148.238 127.82C146.463 127.31 142.466 126.915 139.356 126.94C133.14 126.99 132.335 127.444 116.847 139.606C109.736 145.19 109.677 145.273 111.765 146.669C112.927 147.445 116.375 150.2 119.428 152.789C131.01 162.613 131.825 163.06 138.898 163.459C142.474 163.661 146.755 163.355 148.412 162.776C150.07 162.199 151.604 161.905 151.822 162.124C152.041 162.342 152.45 164.239 152.732 166.339C153.192 169.772 152.909 170.492 149.922 173.479C148.095 175.306 145.71 176.801 144.622 176.801C141.769 176.801 142.127 178.123 146.937 185.359C152.364 193.523 163.097 203.389 170.423 206.95C182.003 212.578 199.436 213.221 208.383 208.352C214.184 205.195 220.714 198.516 223.68 192.707C226.782 186.633 227.181 177.744 224.648 171.151C221.864 163.909 216.95 157.61 211.654 154.496C207.661 152.15 206.234 151.849 199.143 151.858C194.741 151.865 189.495 152.445 187.485 153.149C183.264 154.627 177.033 159.941 175.07 163.736C171.05 171.51 176.364 182.616 185.152 184.809C188.072 185.537 192.96 183.326 194.407 180.62C196.583 176.554 194.222 170.61 189.855 169.154C188.108 168.571 189.491 165.911 192.177 164.687C196.581 162.68 201.61 163.361 205.115 166.438C209.526 170.311 210.738 173.73 210.275 180.994C209.953 186.054 209.4 187.695 207.016 190.656C202.433 196.345 197.923 198.425 190.13 198.444C181.277 198.464 175.721 196.429 170.027 191.079C165.064 186.418 160.683 178.291 159.872 172.246C159.464 169.202 161.707 160.694 164.629 154.202C165.178 152.984 163.481 152.789 152.307 152.789C138.234 152.789 132.481 151.527 127.162 147.268L124.392 145.051L128.104 142.601C134.336 138.487 142.49 136.932 154.723 137.527C164.451 138.001 165.328 137.908 164.691 136.473C164.308 135.606 162.967 131.959 161.713 128.369C158.972 120.52 159.324 116.436 163.455 108.17C172.257 90.558 196.078 86.0268 207.071 99.8746C209.479 102.908 209.973 104.454 210.282 109.923C210.584 115.279 210.291 117.02 208.573 120.078C207.433 122.108 205.308 124.471 203.853 125.331C200.084 127.558 193.044 127.387 190.669 125.011C188.186 122.529 188.283 122.007 191.582 120.13C196.782 117.173 196.447 110.088 190.958 106.881C186.749 104.424 181.441 105.913 177.538 110.649C171.9 117.49 172.501 125.003 179.226 131.729C184.801 137.304 191.73 139.582 201.077 138.913C209.086 138.34 214.364 135.514 219.122 129.248C225.79 120.469 228.122 109.675 225.151 101.359Z" fill="#987863"/>
</svg>
