<svg width="100" height="81" viewBox="0 0 100 81" fill="none" xmlns="http://www.w3.org/2000/svg">
<path fill-rule="evenodd" clip-rule="evenodd" d="M46.7698 0.431089C45.8592 0.64908 43.9827 1.60749 42.5987 2.56106C36.7345 6.60301 34.5064 14.4066 36.02 25.6004L36.4793 28.9937L32.6529 26.9856L28.8265 24.9781L26.8342 25.929C21.4877 28.481 6.08924 39.5528 5.55861 41.227C5.39889 41.7311 5.03924 45.1497 4.75945 48.8239C4.47913 52.498 4.01389 56.7107 3.72553 58.1846C3.43716 59.659 3.05018 62.8413 2.8658 65.2564C2.68142 67.6714 1.8635 72.202 1.04826 75.3237C0.0405947 79.182 -0.23276 81 0.194424 81C1.03218 81 6.09567 77.6942 12.3828 73.0428C18.4052 68.5874 22.8743 65.9662 24.449 65.9662C25.0697 65.9662 27.2212 67.1007 29.2295 68.487C36.8979 73.7811 39.9885 75.7226 44.2222 77.9046L48.5949 80.1586L53.8701 77.6437C59.9755 74.733 73.058 69.7246 74.5566 69.7246C75.1189 69.7246 80.6519 72.1521 86.8522 75.1186C93.0525 78.0851 98.3996 80.4067 98.7346 80.2778C99.456 80.0008 83.3854 72.1451 77.7184 70.0044L73.7805 68.5171L66.7306 71.3483C62.8533 72.9048 57.3288 75.2673 54.4538 76.5972L49.2268 79.0155L46.1459 77.3924C44.4517 76.5001 39.8078 73.7349 35.8265 71.2474C27.1579 65.8314 24.6098 64.7007 22.7071 65.4255C21.2202 65.992 14.6479 70.3996 7.15372 75.8558C4.50057 77.7871 2.12077 79.3726 1.8651 79.3785C1.60997 79.3844 1.55691 78.8459 1.74719 78.1812C3.74911 71.2012 4.76213 64.7774 5.04138 57.2906L5.34904 49.0531L7.29361 47.044C9.48956 44.776 12.9387 43.242 15.2498 43.5067C16.7554 43.6785 16.9645 44.1183 16.4633 46.0641C16.3534 46.492 16.9195 47.1605 17.7395 47.5702C18.5505 47.975 19.2135 48.5264 19.2135 48.7949C19.2135 49.5965 17.2662 50.3954 15.312 50.3954C12.9521 50.3954 11.6576 51.8333 11.3205 54.8288C11.0825 56.9486 10.8376 57.2766 8.60196 58.475C7.25127 59.1988 6.03564 60.154 5.90111 60.597C5.71619 61.2074 5.9263 61.1629 6.77048 60.4128C7.38259 59.8689 8.68397 59.0232 9.66269 58.5336C10.8601 57.9349 11.4904 57.2052 11.5917 56.3016C12.0355 52.331 13.0469 50.9324 15.4744 50.9324C19.1202 50.9324 21.3939 48.1447 18.3688 47.3838C17.2518 47.103 17.0465 46.8018 17.2963 45.8058C17.7958 43.8106 17.1339 42.8785 15.2161 42.8785C12.7157 42.8785 10.0974 43.8939 8.07294 45.648C7.10494 46.4872 6.1273 47.1739 5.90111 47.1739C5.67439 47.1739 5.63901 45.8091 5.82285 44.1403C6.18947 40.8028 5.99705 41.0294 13.0823 35.5995C17.5444 32.1804 25.6572 27.2514 26.2344 27.609C26.4569 27.7465 26.5442 29.245 26.429 30.9395C26.2703 33.266 26.3304 33.6252 26.6729 32.4086C26.9226 31.5226 27.1553 29.892 27.1901 28.7843C27.2694 26.2672 28.1399 26.1819 33.2511 28.1905L36.8636 29.6107L39.5784 37.7697C41.0712 42.2573 43.1299 47.6781 44.1531 49.8166C45.1758 51.9547 46.013 53.7883 46.013 53.8913C46.013 53.9939 44.6768 54.4669 43.0441 54.9421C37.8788 56.4466 36.5126 59.2659 39.9708 61.2831C43.3974 63.2821 58.1435 62.9793 61.3975 60.8434C62.0745 60.3988 62.6287 59.66 62.6287 59.201C62.6287 57.9161 59.6459 55.2251 58.248 55.2487C57.1144 55.268 57.1471 55.3346 58.6088 55.981C60.7297 56.9185 62.1983 58.6232 61.7936 59.6788C61.2946 60.9819 56.8893 61.6708 49.0687 61.6687C42.9605 61.667 41.7551 61.5215 40.2511 60.6029C39.2933 60.0176 38.5091 59.3357 38.5091 59.0877C38.5091 58.0949 41.2062 56.191 43.6707 55.4447L46.281 54.6543L47.8069 56.5518C49.6813 58.8826 50.4269 58.9234 51.9528 56.7768C53.1149 55.1424 60.451 39.3413 64.0131 30.8005L65.8033 26.5078L69.9782 25.3378C76.1962 23.595 76.3275 23.6224 81.4248 27.7169C83.9102 29.7137 87.9124 32.502 90.3174 33.9135C92.7224 35.3251 94.824 36.829 94.9875 37.2553C95.6296 38.9311 99.076 69.912 99.076 74.0077C99.076 75.4563 99.3392 76.8045 99.6613 77.0037C100.368 77.4413 99.9159 68.2041 98.7924 59.2547C98.3846 56.0063 97.7751 50.5699 97.438 47.1739C97.1014 43.7779 96.4277 39.8047 95.941 38.3442C95.0823 35.7681 94.7934 35.5104 86.2122 29.6574C79.998 25.4189 76.8898 23.6143 75.7588 23.5875C74.8734 23.5665 72.4775 24.0283 70.4338 24.6135C68.3906 25.1988 66.6261 25.5848 66.5125 25.471C66.3988 25.3577 66.5971 23.784 66.9525 21.9746C67.8278 17.517 67.3272 12.8576 65.5916 9.30373C63.9215 5.88407 59.5939 1.93071 56.2118 0.735524C53.8175 -0.110665 49.6004 -0.246506 46.7698 0.431089ZM46.7125 1.73849C42.8769 3.57155 39.408 6.93107 37.8997 10.2729C36.1674 14.1113 36.1454 22.7923 37.8515 29.3229C40.4977 39.4508 46.7827 55.0549 48.9266 56.8181C49.7762 57.5172 49.9697 57.4876 50.6911 56.5496C53.0039 53.5423 63.0591 31.3084 65.6157 23.5493C66.9616 19.4655 66.8753 13.8214 65.4169 10.5451C63.0055 5.12862 57.786 1.28587 52.0096 0.674315C50.0597 0.4676 48.873 0.705993 46.7125 1.73849ZM54.0528 11.7913C53.3159 12.0791 52.4047 12.7228 52.0284 13.2222C51.4672 13.9664 51.1783 14.0104 50.4204 13.4665C47.085 11.0713 45.7139 11.3311 44.4747 14.5919C43.281 17.7334 44.0636 20.8921 46.9863 24.7311C50.7168 29.6311 51.0009 29.7041 53.8695 26.5024C57.0158 22.9904 58.366 20.2967 58.7245 16.8153C58.9866 14.2746 58.8719 13.8311 57.6316 12.5886C56.1068 11.0611 55.9894 11.0353 54.0528 11.7913ZM52.7332 13.3253C52.0397 14.0931 51.7642 15.3607 51.7122 18.0233C51.6468 21.371 51.5417 21.6841 50.4349 21.8419C49.356 21.995 49.2289 21.7861 49.2289 19.8537C49.2289 18.6655 49.5216 17.0499 49.8796 16.2633C50.458 14.9919 50.3915 14.7197 49.2841 13.8219C46.6814 11.7102 44.941 13.1696 44.941 17.4628C44.941 19.9874 46.2118 22.5389 48.9915 25.5956L51.2812 28.1132L53.2258 26.2404C56.9858 22.6199 59.2364 15.4542 57.3342 13.1583C56.3372 11.955 53.891 12.0436 52.7332 13.3253ZM50.0903 17.4188C49.5891 18.7272 49.7044 20.7638 50.3009 21.1332C50.6284 21.3361 50.8369 20.5125 50.8369 19.0172C50.8369 16.4459 50.6316 16.0061 50.0903 17.4188ZM74.2715 33.4233C74.0587 34.8671 73.9182 37.8873 73.959 40.1349L74.0335 44.2208L74.5046 38.5832C75.0229 32.3865 74.8825 29.2826 74.2715 33.4233ZM22.3549 38.545C21.3575 39.3612 21.2277 39.7214 21.7418 40.2455C22.2515 40.7652 22.662 40.7706 23.6177 40.2696L24.8414 39.6291L23.6354 39.861C22.9724 39.9888 22.4294 39.904 22.4294 39.672C22.4294 39.4406 22.9724 38.872 23.6354 38.4081C24.2984 37.9448 24.5664 37.5528 24.2309 37.5372C23.8948 37.5222 23.0506 37.9754 22.3549 38.545ZM26.8513 38.0081C26.9253 38.283 26.503 38.8871 25.9134 39.351C24.8762 40.1671 24.8848 40.1794 26.1814 39.7306C27.5122 39.2704 28.3934 37.5093 27.2925 37.5093C26.9762 37.5093 26.7774 37.7337 26.8513 38.0081ZM78.2796 41.3751C77.437 42.2192 77.4542 44.7449 78.3064 45.445C78.6751 45.7473 79.9749 46.2628 81.1959 46.5892C82.545 46.9506 83.766 47.72 84.3089 48.55C85.3831 50.1925 87.2826 51.0263 88.2222 50.2677C89.2545 49.4349 89.0208 47.9873 87.6267 46.5758C86.9305 45.8713 85.9635 44.5167 85.4774 43.5658C84.9907 42.6144 84.1294 41.5878 83.5618 41.2839C82.1596 40.5322 79.068 40.5853 78.2796 41.3751ZM78.733 42.0436C78.3793 42.4705 78.1692 43.3666 78.2651 44.0351C78.4002 44.9715 78.9324 45.3527 80.5811 45.6942C81.9104 45.9696 83.4701 46.87 84.697 48.07C85.9507 49.2964 86.9803 49.8843 87.5142 49.6786C88.7282 49.2126 88.5642 48.5227 86.7482 46.4507C85.8638 45.4418 85.1403 44.3637 85.1403 44.0549C85.1403 43.0675 82.3665 41.2678 80.8459 41.2678C80.0371 41.2678 79.0863 41.6168 78.733 42.0436ZM25.1346 42.6101C25.1019 42.9054 24.7288 45.6839 24.3054 48.7847C23.882 51.8854 23.5582 55.9929 23.5861 57.9123L23.6376 61.4023L24.0653 57.9123C25.4905 46.2837 25.7542 43.4895 25.4894 42.82C25.327 42.4093 25.1673 42.3148 25.1346 42.6101ZM36.981 43.7892C34.5578 44.9854 33.7335 46.8179 34.9914 48.2107C35.9031 49.2196 35.8501 49.2931 33.2532 50.6107C30.2013 52.1603 28.3253 54.2522 28.3253 56.1056C28.3253 57.7502 29.5104 57.7464 31.7112 56.0943C32.6497 55.3899 34.792 54.4207 36.4718 53.9397C38.1522 53.4591 39.699 52.7864 39.9097 52.4449C40.1771 52.0116 39.9826 51.9482 39.267 52.2355C38.7026 52.4621 37.1525 52.9786 35.8222 53.3834C34.4919 53.7888 32.5757 54.7316 31.5643 55.479C29.4675 57.0291 28.8613 57.1623 28.8613 56.0745C28.8613 54.7279 31.5525 52.0513 33.9956 50.9689C36.5753 49.8258 36.7447 49.5095 35.61 47.9551C34.6044 46.5779 35.312 45.3258 37.8558 43.9803C40.2682 42.704 39.5141 42.5392 36.981 43.7892ZM65.8419 43.8955C67.407 44.3314 67.9232 45.9529 66.6518 46.4415C66.1684 46.6273 65.2459 46.5248 64.6027 46.2134C63.2134 45.5411 61.5567 45.5465 61.5567 46.2236C61.5567 46.4877 61.9785 46.6397 62.4947 46.5607C63.0108 46.4818 63.9917 46.725 64.6746 47.102C65.7133 47.6749 66.1298 47.6469 67.2205 46.9312C68.703 45.9583 68.7282 45.874 67.9698 44.4539C67.6155 43.7913 66.8882 43.4348 65.9599 43.4691L64.5046 43.5223L65.8419 43.8955ZM79.3392 51.5122C80.1288 52.0969 80.9333 53.3013 81.1278 54.1883C81.3245 55.086 82.1146 56.2039 82.9089 56.7096C83.6942 57.2095 84.5405 57.9467 84.7908 58.3483C85.0406 58.7494 86.789 59.7723 88.6767 60.6206C92.2909 62.2448 92.9443 63.3326 90.9488 64.4021C90.0564 64.8805 89.0985 64.8569 86.7949 64.299C83.4696 63.4937 75.9791 63.2875 76.4208 64.0134C76.5757 64.2684 78.0582 64.3522 79.7155 64.1997C81.6092 64.0257 83.967 64.2427 86.0643 64.7844C89.775 65.7434 92.2293 65.3127 92.5492 63.6472C92.8167 62.2561 91.7061 61.1795 88.569 59.79C87.0409 59.1129 85.5648 58.1545 85.2882 57.6595C85.0116 57.1644 84.2189 56.4755 83.5264 56.1282C82.8339 55.7802 82.0862 54.8165 81.8648 53.9853C81.3444 52.0298 80.565 51.1203 79.0927 50.7487C78.0228 50.4787 78.0475 50.5549 79.3392 51.5122ZM67.8723 53.9273C67.4253 54.9093 67.406 55.5719 67.8063 56.2092C68.3611 57.0935 71.7405 59.3363 71.7405 58.8203C71.7405 58.6748 70.8963 58.0562 69.8645 57.4468C67.0597 55.7888 67.4628 53.5268 70.6685 52.9362C71.793 52.7289 71.726 52.6774 70.2553 52.6161C68.8542 52.5576 68.375 52.8213 67.8723 53.9273ZM74.3181 58.7247C74.197 59.7626 74.2875 60.91 74.5191 61.2751C74.7576 61.6515 74.9436 60.8332 74.9484 59.3889C74.9581 56.3902 74.63 56.0449 74.3181 58.7247ZM48.8591 70.53C48.8618 72.3019 48.962 72.9617 49.0815 71.9969C49.2005 71.032 49.1984 69.5824 49.0762 68.7754C48.9534 67.9684 48.8559 68.7582 48.8591 70.53Z" fill="black"/>
</svg>
