<svg width="410" height="497" viewBox="0 0 410 497" fill="none" xmlns="http://www.w3.org/2000/svg">
<path fill-rule="evenodd" clip-rule="evenodd" d="M202.981 2.55284L201.421 5.01241L198.806 3.95447C194.918 2.38151 188.732 2.528 183.766 4.31033C179.045 6.00445 177.063 6.01611 173.377 4.37167L170.467 3.07345L170.87 4.24494C171.53 6.16718 174.072 8.20448 175.81 8.20448C178.592 8.20448 179.204 8.67186 179.204 10.7933C179.204 12.641 179.312 12.7668 180.905 12.7668C182.266 12.7668 182.787 13.1039 183.518 14.4599C185.653 18.4219 191.484 19.9584 194.406 17.329C196.451 15.4884 196.618 12.6375 194.796 10.6686C194.06 9.87326 193.704 9.72676 193.735 10.2322C193.955 13.8287 192.002 16.5154 189.574 15.9563C187.83 15.5548 186.119 12.9102 186.116 10.6123C186.109 4.33973 198.452 4.57596 201.868 10.914C203.847 14.5841 202.75 18.7494 199.223 20.9641C197.695 21.9237 196.642 22.1371 193.6 22.1052C187.722 22.0429 184.227 20.1911 175.954 12.7556C167.745 5.3779 164.38 3.62853 157.672 3.24935C150.682 2.85446 146.528 4.60637 144.404 8.84523L143.146 11.3535L142.454 9.3192C141.595 6.79728 138.579 4.38688 135.305 3.60723C133.955 3.28585 130.992 3.12668 128.72 3.25391C122.163 3.62041 119.181 5.18984 110.681 12.7475C103.086 19.5002 100.614 20.9576 94.9909 21.9957C92.2627 22.4996 91.4398 22.4555 89.1406 21.6824C84.09 19.9848 82.1754 15.2147 84.7557 10.7614C87.3826 6.22851 94.0788 4.6302 98.8674 7.3924C101.573 8.95269 100.931 13.7522 97.7733 15.5736C96.4011 16.3649 96.1754 16.3684 94.8729 15.6172C93.5669 14.8639 93.3447 14.3326 92.6191 10.2322C92.398 8.98311 90.5272 12.5625 90.5272 14.2343C90.5272 15.1077 91.1168 16.3552 91.9166 17.1739C93.0579 18.3418 93.7719 18.5963 95.9054 18.5963C98.9923 18.5963 101.228 17.3341 102.898 14.65C103.764 13.2569 104.459 12.7769 105.777 12.6633C107.392 12.5239 107.505 12.382 107.39 10.6321C107.271 8.82951 107.356 8.73725 109.405 8.43361C113.045 7.89323 113.467 7.69604 114.683 5.9639C116.449 3.44908 116.129 3.06027 113.416 4.42591C110.262 6.01358 107.721 5.98823 102.832 4.32148C97.5868 2.53358 91.3753 2.38201 87.8018 3.95447L85.3637 5.02762L83.8908 2.81391C83.08 1.59679 82.1875 0.600699 81.9071 0.600699C81.246 0.600699 79.1581 2.94114 78.7101 4.18462C78.3726 5.12089 78.2874 5.11633 75.9507 4.03761C72.4059 2.40026 65.7454 2.55487 60.2963 4.40006C55.5947 5.9928 52.4726 5.92233 49.6632 4.1613C48.6658 3.53627 47.7572 3.1064 47.6437 3.20677C47.5303 3.30663 47.7837 4.11314 48.2069 4.99822C49.096 6.85963 51.1332 8.18522 53.4757 8.42702C54.3769 8.51978 55.3086 8.62168 55.5458 8.65361C55.783 8.68555 55.9777 9.62386 55.9777 10.7391C55.9777 12.6502 56.0761 12.7668 57.6902 12.7668C59.0071 12.7668 59.6077 13.115 60.2866 14.2713C62.3566 17.7944 66.4277 19.5716 69.6973 18.3794C71.3568 17.7741 73.2524 15.4925 73.2524 14.0999C73.2524 13.1758 71.4639 9.72473 70.9865 9.72676C70.8075 9.72777 70.6485 10.6463 70.6324 11.7681C70.6117 13.2605 70.2074 14.1572 69.1255 15.1092C67.7187 16.3476 67.565 16.3735 65.9556 15.6405C64.0283 14.7635 62.8876 12.9173 62.8876 10.6762C62.8876 8.69265 65.6245 6.19759 67.8817 6.12307C72.7975 5.96086 75.0703 6.69437 77.4876 9.22339C83.7601 15.786 77.115 24.1719 67.4567 21.8822C62.7114 20.7573 60.3125 19.2614 52.7859 12.7318C43.3395 4.53743 40.9331 3.38774 33.2326 3.39078C29.2818 3.3923 27.5711 3.61737 26.0348 4.33821C24.1512 5.22228 21.4955 7.51507 21.4489 8.29826C21.4374 8.48937 21.1477 9.28777 20.8051 10.0725L20.1821 11.4995L19.3898 9.47178C18.4028 6.94732 15.3262 4.39397 12.4131 3.68226C11.1958 3.3847 8.70935 3.13986 6.88859 3.13833L3.5776 3.13529V6.75165C3.5776 13.0638 5.72082 16.7263 10.1996 18.0666L12.5029 18.756L10.0533 19.6193C5.07244 21.3742 3.31387 24.8841 3.68298 32.3348C4.00544 38.8487 5.75134 41.795 13.7317 49.2898C18.2076 53.4936 20.3589 55.9638 21.6418 58.3742C23.6393 62.1275 24.2745 66.8114 23.1804 69.7282C22.4347 71.7179 19.8147 73.9321 17.6369 74.4132C11.7186 75.721 5.90911 70.1773 6.59665 63.8779C6.83331 61.7057 7.21681 60.9763 8.75945 59.7632C10.2739 58.5714 10.9793 58.3469 12.4321 58.5912C14.3006 58.9055 17.3974 61.437 17.3974 62.6501C17.3974 64.1268 15.3659 65.5507 12.8317 65.8498L10.2934 66.1499L11.6057 67.0851C13.0539 68.1177 15.7148 68.3068 17.4291 67.4988C19.2423 66.6446 20.4314 64.0938 19.9909 62.0033C19.5153 59.7444 17.3335 57.1277 15.0642 56.0946C13.7737 55.5071 13.3666 54.9678 13.3666 53.8449C13.3666 52.5036 13.1674 52.3531 11.2073 52.2101C9.09976 52.0565 9.04045 51.9967 8.74102 49.7024C8.39956 47.0902 7.59974 46.0009 5.23137 44.9226C2.9655 43.8911 2.93095 43.9519 4.42521 46.3501C6.59607 49.8347 6.67611 51.1887 4.97685 55.645C2.83018 61.2738 2.51808 66.4267 4.10333 70.0486L5.32408 72.8366L4.03768 73.597C3.33057 74.0152 2.13228 74.8227 1.37565 75.3915L0 76.4256L2.50829 77.9074C3.88855 78.7225 5.06265 79.3997 5.11851 79.4129C5.17436 79.4256 4.69182 80.8029 4.04632 82.4727C2.52672 86.4064 2.87682 91.5815 5.02292 96.8981C6.72621 101.116 6.65769 102.25 4.46898 106.085L3.05014 108.573L5.30968 107.559C7.95387 106.371 8.64371 105.408 9.14122 102.212C9.50169 99.8975 9.53451 99.8666 11.437 100.062C13.2745 100.251 13.3666 100.182 13.3666 98.6221C13.3666 97.4825 13.6862 96.8945 14.4152 96.6907C16.2331 96.1828 19.092 93.3283 19.7658 91.3473C20.6606 88.7189 19.6189 86.014 17.3076 84.9616C15.329 84.0608 12.7862 84.3665 11.4537 85.6652C10.6435 86.4545 10.7345 86.5336 12.5893 86.6527C13.6983 86.7242 15.0866 87.0091 15.6745 87.2859C18.1834 88.468 17.4809 91.765 14.4233 93.1565C11.2804 94.5875 8.56827 93.7927 7.27152 91.0614C4.46264 85.1426 9.15965 78.0746 15.9026 78.0746C21.2819 78.0746 24.047 81.4872 23.6031 87.5778C23.2259 92.7469 21.3343 95.8634 14.888 101.934C5.85499 110.44 3.61215 114.226 3.5943 120.994C3.58854 123.224 3.85572 125.911 4.18797 126.964C4.98089 129.477 7.74139 132.192 10.2422 132.919L12.2432 133.5L9.3727 134.759C7.00548 135.798 6.23618 136.498 4.98492 138.748C3.59948 141.241 3.48547 141.911 3.66685 146.473C3.84939 151.056 4.04287 151.779 6.0191 155.24C7.53467 157.896 9.7061 160.439 13.3528 163.829C19.7105 169.738 21.1259 171.47 22.5879 175.132C25.6311 182.755 22.5372 189.192 15.8427 189.166C10.6245 189.146 6.45442 184.991 6.45903 179.816C6.46363 174.003 11.7365 171.472 16.0074 175.232C18.7299 177.628 16.9603 180.557 12.7908 180.557C10.0602 180.557 9.87885 181.035 12.1597 182.222C14.2142 183.29 15.245 183.311 17.4037 182.328C21.6061 180.415 20.7268 174.074 15.9026 171.499C13.7881 170.371 13.4 169.911 13.385 168.518C13.3678 166.976 13.2376 166.87 11.3512 166.87C10.2428 166.87 9.31857 166.699 9.29727 166.49C8.85446 162.159 8.21414 161.08 5.31832 159.779L3.06684 158.768L4.84096 162.106L6.61565 165.444L5.59011 168.565C3.33691 175.422 3.00177 176.828 3.00177 179.413C3.00177 180.893 3.5229 183.408 4.15976 185.003C4.80583 186.622 5.07474 187.975 4.76783 188.065C4.46552 188.154 3.28681 188.877 2.14898 189.674L0.0794638 191.122L2.26069 192.528C3.46013 193.301 4.63194 194.069 4.86457 194.234C5.09778 194.398 4.74537 195.78 4.08202 197.303C2.48987 200.96 2.84458 206.598 5.00104 211.924C6.69108 216.098 6.60298 217.488 4.42521 220.984C2.91655 223.405 3.08124 223.555 5.70009 222.15C7.92623 220.955 8.78594 219.639 8.96214 217.158C9.08824 215.384 9.21262 215.272 11.2309 215.124C13.138 214.983 13.3666 214.816 13.3666 213.561C13.3666 212.503 13.8889 211.853 15.4811 210.93C18.7379 209.042 19.9886 207.226 19.9886 204.386C19.9886 202.484 19.6736 201.634 18.5928 200.621C16.8838 199.019 13.5774 198.843 11.6057 200.249L10.2934 201.184L12.8317 201.484C15.3659 201.783 17.3974 203.207 17.3974 204.684C17.3974 205.066 16.6776 206.089 15.7983 206.956C14.5799 208.156 13.6845 208.544 12.0388 208.585C4.34402 208.777 4.80756 196.282 12.6014 193.414C16.4594 191.996 20.2973 193.137 22.6144 196.394C23.5829 197.755 23.758 198.715 23.6082 201.848C23.3336 207.582 21.309 210.898 13.7559 217.985C5.76228 225.486 4.00659 228.463 3.67837 235.074C3.3179 242.326 5.60623 246.754 10.2439 247.779C12.1626 248.203 11.9927 248.675 9.65198 249.42C7.16672 250.211 4.9423 252.495 4.15688 255.062C3.2275 258.101 3.31214 263.647 4.33481 266.733C5.61832 270.606 7.67459 273.246 14.205 279.406C21.2635 286.064 23.3405 289.535 23.6082 295.121C23.758 298.253 23.5829 299.213 22.6144 300.575C17.2909 308.056 5.57168 302.898 6.59492 293.524C6.8742 290.965 8.46462 288.842 10.5364 288.263C13.2486 287.506 17.8984 290.905 17.1164 293.074C16.6592 294.342 14 295.628 11.832 295.628C10.3833 295.628 10.3222 295.699 11.1485 296.427C11.6478 296.866 13.0816 297.347 14.3352 297.495C16.2037 297.716 16.9172 297.534 18.3009 296.486C21.7109 293.904 19.9155 287.938 15.0642 285.729C13.7737 285.141 13.3666 284.602 13.3666 283.479C13.3666 282.138 13.1674 281.987 11.2073 281.844C9.15446 281.695 9.04218 281.594 8.92874 279.793C8.77212 277.307 7.93602 276.019 5.70009 274.818C3.15898 273.454 2.87221 273.574 4.12348 275.477C6.53964 279.153 6.69972 280.847 5.02234 284.99C2.84342 290.372 2.48353 295.993 4.08202 299.665C4.74537 301.188 5.09778 302.57 4.86457 302.735C4.63194 302.899 3.46013 303.667 2.26069 304.44L0.0794638 305.846L2.14898 307.294C3.28681 308.091 4.44594 308.813 4.72522 308.901C5.00392 308.989 4.70103 310.43 4.05208 312.102C2.55781 315.957 2.88431 321.022 4.99413 326.704C6.6001 331.031 6.53619 331.949 4.35842 335.785C2.86358 338.419 3.30984 338.578 6.58629 336.58C8.08343 335.667 9.55927 332.532 9.20398 331.018C9.10206 330.582 9.7942 330.297 11.2073 330.194C13.2129 330.048 13.3672 329.922 13.3712 328.42C13.3747 327.061 13.7501 326.614 15.7229 325.623C18.1615 324.397 20.2391 321.378 20.2639 319.024C20.2886 316.69 17.4164 313.877 15.01 313.877C13.9805 313.877 10.4875 315.487 10.4875 315.962C10.4875 316.209 11.524 316.411 12.7908 316.411C15.3837 316.411 17.3974 317.763 17.3974 319.503C17.3974 321.062 14.1716 323.508 12.1165 323.508C8.4986 323.508 6.45672 321.197 6.45672 317.103C6.45672 312.022 10.5842 307.794 15.5444 307.794C18.955 307.794 21.1909 308.946 22.6426 311.45C23.6606 313.207 23.8236 314.187 23.6013 317.23C23.2236 322.418 21.2882 325.59 14.6974 331.827C5.47034 340.559 3.6133 343.791 3.59142 351.163C3.57933 355.085 3.79181 356.13 5.05171 358.356C6.22927 360.436 7.0838 361.205 9.3013 362.177L12.0768 363.395L10.1702 364.002C7.72527 364.78 4.96073 367.554 4.18797 370.004C3.07433 373.535 3.45322 379.705 4.98664 382.987C6.80452 386.88 8.44965 388.905 14.1192 394.23C21.7512 401.398 23.7315 404.786 23.7315 410.671C23.7315 415.706 20.5097 418.959 15.5824 418.899C10.5111 418.838 6.493 414.662 6.4717 409.431C6.44751 403.644 11.7411 401.11 16.0074 404.866C18.6538 407.196 17.1619 409.795 12.8069 410.442C10.5929 410.772 10.4869 410.856 11.4969 411.479C14.8453 413.543 18.64 412.493 19.764 409.191C20.7844 406.193 19.2924 403.08 15.9383 401.21C13.8273 400.033 13.4052 399.532 13.3879 398.184C13.3672 396.623 13.2981 396.578 11.3512 396.856C10.2428 397.014 9.31973 397.057 9.30015 396.951C9.28057 396.844 9.13258 395.743 8.97193 394.504C8.57576 391.449 7.96193 390.601 5.27571 389.394L2.98162 388.364L4.15458 390.28C6.49012 394.095 6.61623 395.528 4.99989 399.882C2.88488 405.58 2.55666 410.642 4.05208 414.5C4.81274 416.46 5.01486 417.609 4.62157 417.732C4.28586 417.836 3.20101 418.578 2.21059 419.381L0.410563 420.84L1.91116 421.979C2.73632 422.605 3.84248 423.346 4.36878 423.625C5.25095 424.091 5.23022 424.35 4.10448 426.919C2.51175 430.555 2.82903 435.693 4.99643 441.367C6.68648 445.79 6.53792 447.453 4.12348 451.125C2.86934 453.033 2.89006 453.045 5.54116 451.931C7.69705 451.027 8.79918 449.307 8.95177 446.609C9.04103 445.035 9.20111 444.904 11.2073 444.758C13.1674 444.615 13.3666 444.464 13.3666 443.123C13.3666 442.026 13.7732 441.46 14.9501 440.921C20.0249 438.597 21.7996 432.502 18.1391 429.967C16.3408 428.722 14.4757 428.672 12.0422 429.805L10.1996 430.663L12.7908 431.062C15.3878 431.461 17.3974 432.902 17.3974 434.365C17.3974 435.452 14.338 437.965 12.5265 438.365C10.7299 438.762 8.34716 437.479 7.18514 435.488C5.38166 432.399 6.99742 426.794 10.4224 424.257C13.6856 421.84 17.5984 421.799 20.7694 424.148C23.0249 425.818 23.9123 428.305 23.6307 432.166C23.2593 437.262 20.8656 441.009 13.7472 447.64C5.86996 454.978 4.0348 458.089 3.69161 464.685C3.55284 467.351 3.74286 470.19 4.14882 471.516C4.90833 473.997 7.9032 476.896 10.2393 477.412C12.0284 477.807 12.0301 478.429 10.2439 478.823C6.39453 479.674 3.71637 483.755 3.55342 489.017C3.39564 494.137 3.18489 493.833 6.88859 493.83C8.70935 493.828 11.1958 493.583 12.4131 493.286C15.3262 492.574 18.4028 490.021 19.3898 487.496L20.1821 485.469L20.8051 486.896C21.1477 487.68 21.4282 488.525 21.4282 488.772C21.4282 489.02 22.3622 490.02 23.5029 490.996C27.3166 494.256 35.3522 494.764 41.8101 492.152C44.4042 491.104 46.9994 489.227 52.8106 484.201C61.0023 477.116 64.2269 475.309 69.7053 474.739C73.2225 474.372 77.0793 475.805 78.5759 478.036C81.994 483.13 77.8504 490.339 71.2278 490.819C67.6191 491.081 66.2239 490.765 64.5707 489.31C61.8367 486.903 62.6532 482.616 66.1099 481.23C67.5218 480.664 67.835 480.722 69.0356 481.78C69.9466 482.582 70.4263 483.653 70.5207 485.101C70.5979 486.276 70.8161 487.239 71.0055 487.24C71.195 487.242 71.8151 486.335 72.3835 485.225C73.3129 483.411 73.3342 483.015 72.5937 481.302C70.5564 476.59 63.4023 477.461 60.2301 482.807C59.61 483.853 58.9743 484.201 57.6902 484.201C56.0842 484.201 55.9777 484.324 55.9777 486.175C55.9777 488.247 55.3512 488.764 52.8411 488.764C51.0515 488.764 48.7355 490.461 48.0036 492.309C47.672 493.147 47.49 493.833 47.5994 493.833C47.7088 493.833 48.9261 493.265 50.3046 492.572C53.5166 490.955 56.0312 490.972 60.6292 492.641C65.682 494.474 72.4094 494.609 75.9507 492.948C78.2834 491.854 78.3732 491.849 78.7101 492.783C79.1512 494.007 81.242 496.367 81.8846 496.367C82.1524 496.367 82.9562 495.512 83.6702 494.466C84.3842 493.421 85.0234 492.497 85.0896 492.413C85.1559 492.33 86.8603 492.752 88.8763 493.35C93.2877 494.66 97.3484 494.426 103.066 492.532C107.812 490.959 110.235 490.972 113.366 492.587C116.034 493.964 116.457 493.606 114.902 491.29C113.8 489.647 112.444 488.967 109.386 488.524C107.483 488.248 107.238 488.048 107.308 486.84C107.447 484.483 107.27 484.202 105.643 484.185C104.391 484.172 103.729 483.69 102.481 481.88C97.782 475.066 87.287 478.885 91.5066 485.874L92.4861 487.496L92.9185 484.962C93.313 482.65 94.8666 480.653 96.2716 480.653C97.4491 480.653 99.787 482.954 100.381 484.698C101.319 487.456 99.7933 489.753 96.4564 490.603C91.7692 491.798 86.9334 489.912 84.8184 486.065C81.3566 479.77 86.4215 473.802 94.414 474.76C99.5964 475.38 102.975 477.342 110.681 484.201C119.211 491.794 122.162 493.346 128.79 493.72C136.061 494.131 140.762 492 142.536 487.489L143.325 485.485L144.039 487.39C145.779 492.032 150.276 494.136 157.573 493.724C164.365 493.341 167.243 491.848 175.847 484.249C183.506 477.485 186.689 475.594 191.662 474.855C195.423 474.295 198.1 474.984 200.549 477.139C203.042 479.334 203.512 481.209 202.431 484.642C201.228 488.459 197.732 490.859 193.287 490.918C188.007 490.988 184.848 488.19 186.202 484.642C187.429 481.424 189.672 480.164 191.819 481.488C193.085 482.268 194.453 485.86 193.87 486.874C193.673 487.216 194.05 486.958 194.708 486.299C196.757 484.248 196.492 481.437 194.063 479.455C192.57 478.237 191.933 478.046 190.09 478.263C187.252 478.598 184.775 480.175 183.567 482.417C182.787 483.864 182.284 484.201 180.905 484.201C179.308 484.201 179.204 484.324 179.204 486.206C179.204 488.13 179.118 488.223 177.045 488.514C174.139 488.923 173.383 489.329 171.862 491.294C169.984 493.722 170.241 493.956 173.244 492.551C176.608 490.976 179.046 490.971 183.478 492.529C188.811 494.403 193.13 494.664 197.468 493.376C199.438 492.791 201.17 492.312 201.318 492.312C201.467 492.312 202.17 493.224 202.882 494.34C203.594 495.455 204.369 496.367 204.605 496.367C205.192 496.367 207.296 493.959 207.709 492.815C208.031 491.922 208.162 491.929 210.755 492.978C214.632 494.546 220.759 494.403 226.003 492.622C230.875 490.968 232.906 490.96 236.359 492.578C237.861 493.282 239.09 493.729 239.09 493.572C239.09 493.414 238.576 492.399 237.949 491.316C236.924 489.548 236.481 489.287 233.63 488.766L230.453 488.185V486.193C230.453 484.354 230.33 484.201 228.856 484.201C227.616 484.201 227.012 483.797 226.152 482.391C222.545 476.494 213.429 477.037 213.626 483.137C213.652 483.962 214.146 485.272 214.722 486.049L215.769 487.46L216.092 485C216.319 483.273 216.81 482.259 217.74 481.597C219.424 480.396 219.707 480.411 221.515 481.793C223.088 482.997 223.935 485.797 223.349 487.854C222.851 489.6 219.928 490.892 216.528 490.868C206.914 490.803 203.124 479.248 211.462 475.425C213 474.72 214.24 474.571 216.799 474.786C222.615 475.273 225.906 477.085 233.506 483.983C241.572 491.303 245.453 493.404 251.543 493.745C258.718 494.148 263.154 492.311 265.287 488.056L266.578 485.481L266.965 487.031C268.088 491.532 273.5 494.136 280.867 493.72C287.52 493.345 290.458 491.803 298.976 484.215C306.748 477.291 309.995 475.439 315.485 474.797C323.318 473.883 328.21 479.691 324.943 486.026C321.12 493.436 307.025 492.072 309.394 484.521C309.945 482.764 312.266 480.653 313.648 480.653C314.994 480.653 316.497 482.767 316.822 485.12L317.151 487.496L318.14 485.874C321.067 481.076 316.575 476.715 310.868 478.814C309.469 479.328 308.221 480.365 307.176 481.88C305.928 483.69 305.266 484.172 304.014 484.185C302.557 484.2 302.431 484.361 302.431 486.206C302.431 488.129 302.343 488.224 300.271 488.524C296.959 489.004 295.518 489.823 294.305 491.915C293.007 494.155 293.277 494.237 296.385 492.552C299.349 490.945 301.877 490.964 306.825 492.631C312.157 494.427 318.363 494.565 321.786 492.963L324.155 491.855L326.049 494.428L327.942 497L328.986 495.797C329.561 495.135 330.32 493.987 330.674 493.246L331.318 491.899L334.005 492.987C337.857 494.545 343.998 494.398 349.23 492.622C354.09 490.972 355.847 490.964 359.456 492.574C362.614 493.982 362.841 493.836 361.194 491.457C359.73 489.346 358.287 488.701 354.111 488.298C353.873 488.275 353.679 487.344 353.679 486.229C353.679 484.337 353.569 484.201 352.035 484.201C350.715 484.201 350.071 483.755 348.763 481.934C345.455 477.326 339.498 476.84 337.258 480.996C336.507 482.39 336.452 483.047 336.972 484.434C337.326 485.376 337.997 486.427 338.462 486.767C339.157 487.275 339.246 487.24 338.956 486.575C338.481 485.486 339.65 482.498 340.958 481.455C343.129 479.726 346.769 482.682 346.769 486.176C346.769 489.382 342.717 491.506 338.012 490.764C333.363 490.032 329.937 486.415 329.937 482.238C329.937 479.026 331.392 476.861 334.414 475.573C337.405 474.299 339.359 474.31 344.219 475.632C347.934 476.642 348.523 477.037 356.309 483.745C362.524 489.099 365.287 491.116 367.788 492.124C373.465 494.412 381.417 494.27 385.34 491.811C386.759 490.922 388.254 488.803 389.101 486.482C389.408 485.641 389.606 485.813 390.265 487.496C391.255 490.021 394.331 492.574 397.244 493.286C398.461 493.583 400.947 493.828 402.768 493.83L406.079 493.833L406.076 490.158C406.074 488.137 405.786 485.573 405.435 484.461C404.732 482.23 401.613 479.31 399.417 478.824C397.628 478.43 397.627 477.808 399.413 477.413C401.68 476.912 404.2 474.701 405.242 472.298C405.991 470.571 406.163 468.901 405.987 465.048C405.67 458.111 404.017 455.24 396.002 447.703C388.606 440.749 386.441 437.284 386.09 431.847C385.81 427.509 386.817 425.325 389.956 423.463C395.354 420.261 403.2 425.111 403.2 431.651C403.2 436.694 400.157 439.379 396.121 437.895C394.997 437.481 393.631 436.544 393.086 435.812C391.296 433.407 393.684 431.004 397.911 430.958L399.457 430.941L398.098 429.944C397.35 429.396 395.918 428.947 394.915 428.947C387.855 428.947 387.914 437.862 394.995 441.069C395.888 441.474 396.29 442.113 396.29 443.128C396.29 444.46 396.493 444.616 398.426 444.758C400.444 444.906 400.569 445.018 400.695 446.793C400.871 449.274 401.731 450.589 403.957 451.784C406.498 453.148 406.785 453.028 405.53 451.125C404.933 450.219 404.156 448.512 403.802 447.332C403.233 445.428 403.341 444.741 404.759 441.249C406.802 436.215 407.055 428.793 405.281 425.924C404.247 424.252 404.243 424.144 405.214 423.643C405.775 423.354 406.983 422.579 407.899 421.921L409.565 420.724L407.966 419.513C407.086 418.848 406.238 418.299 406.079 418.295C405.921 418.29 405.472 418.108 405.082 417.89C404.539 417.586 404.655 416.849 405.577 414.73C407.125 411.176 406.781 405.575 404.667 399.898C403.051 395.557 403.117 394.661 405.337 390.749L406.734 388.29L404.45 389.42C401.77 390.746 400.907 391.966 400.691 394.736C400.537 396.715 400.488 396.757 398.412 396.7C396.526 396.649 396.29 396.781 396.29 397.884C396.29 398.728 395.288 399.966 393.166 401.744C389.391 404.907 388.662 407.04 390.329 410.043C391.77 412.64 394.713 413.383 397.47 411.847L399.328 410.811L396.998 410.464C392.585 409.808 391.137 407.411 393.697 405.001C397.873 401.072 403.209 403.564 403.185 409.431C403.164 414.597 399.768 418.254 394.585 418.692C388.775 419.184 385.588 415.734 386.054 409.459C386.435 404.324 388.5 400.827 394.291 395.508C403.741 386.829 405.544 383.9 405.944 376.584C406.156 372.712 406.002 371.126 405.246 369.384C404.184 366.936 401.136 364.261 398.828 363.751C397.399 363.436 397.424 363.4 399.669 362.514C404.373 360.66 405.97 357.834 406.035 351.249C406.11 343.727 404.323 340.568 395.05 331.828C388.49 325.644 386.432 322.285 386.053 317.143C385.589 310.867 388.776 307.418 394.585 307.91C398.014 308.2 400.716 309.87 402.103 312.559C404.069 316.371 403.183 321.653 400.353 322.986C397.737 324.219 394.01 322.964 392.829 320.452C392.145 318.998 392.199 318.769 393.493 317.629C394.432 316.803 395.616 316.365 397.036 316.317C399.689 316.23 399.741 315.752 397.211 314.695C394.575 313.594 393.795 313.658 391.792 315.141C388.197 317.805 389.284 323.014 393.964 325.557C395.87 326.592 396.262 327.082 396.275 328.451C396.29 330.013 396.401 330.098 398.449 330.1C400.536 330.103 400.613 330.166 400.721 331.981C400.877 334.618 401.948 336.115 404.498 337.261L406.697 338.248L405.319 335.821C403.109 331.928 403.048 331.036 404.697 326.702C407.172 320.196 407.134 314.784 404.573 309.484C404.417 309.159 404.756 308.752 405.328 308.579C405.9 308.406 407.144 307.645 408.095 306.887C409.045 306.129 409.721 305.561 409.598 305.623C409.475 305.686 408.668 305.231 407.804 304.611C406.94 303.992 405.805 303.257 405.282 302.978C404.408 302.512 404.431 302.244 405.556 299.683C407.176 295.997 406.824 290.399 404.634 284.99C402.957 280.847 403.117 279.153 405.533 275.477C406.785 273.574 406.498 273.454 403.957 274.818C401.739 276.009 400.927 277.243 400.695 279.775C400.53 281.578 400.399 281.696 398.405 281.844C396.507 281.986 396.29 282.15 396.29 283.442C396.29 284.55 395.826 285.123 394.28 285.926C392.02 287.1 390.128 289.522 389.619 291.891C389.227 293.719 390.526 296.332 392.228 297.133C393.942 297.941 396.603 297.752 398.051 296.719L399.363 295.784L396.825 295.484C394.331 295.19 392.259 293.765 392.259 292.345C392.259 291.141 394.585 289.11 396.65 288.51C398.459 287.984 398.911 288.033 400.24 288.902C402.339 290.273 403.182 291.923 403.191 294.679C403.203 297.757 401.996 300.187 399.497 302.119C396.085 304.756 392.162 304.88 388.887 302.455C386.571 300.739 385.715 298.24 386.077 294.26C386.533 289.263 388.876 285.64 395.946 279C403.972 271.462 405.669 268.512 405.987 261.554C406.163 257.701 405.991 256.031 405.242 254.304C404.2 251.902 401.68 249.69 399.413 249.189C397.628 248.795 397.628 248.173 399.413 247.779C401.671 247.28 404.199 245.07 405.23 242.692C405.957 241.016 406.142 239.258 405.991 235.469C405.714 228.532 404.054 225.639 396.002 218.069C388.914 211.404 386.535 207.721 386.077 202.708C385.715 198.728 386.571 196.229 388.887 194.513C392.265 192.011 396.165 192.217 399.774 195.087C404.6 198.926 404.199 207.286 399.12 208.705C397.617 209.125 394.221 207.703 393.086 206.178C391.295 203.771 393.694 201.36 397.911 201.329L399.457 201.318L398.018 200.327C395.318 198.467 391.809 199.184 390.199 201.924C388.552 204.729 390.498 209.078 394.28 211.042C395.826 211.845 396.29 212.418 396.29 213.526C396.29 214.821 396.505 214.982 398.425 215.124C400.457 215.273 400.57 215.378 400.78 217.3C401.069 219.943 401.731 220.955 403.957 222.15C406.533 223.532 406.787 223.394 405.42 221.353C403.183 218.016 403.023 215.954 404.682 211.858C406.795 206.642 407.151 200.987 405.609 197.153L404.434 194.232L405.977 193.526C406.825 193.137 408.167 192.191 408.958 191.422C409.75 190.654 410.068 190.192 409.667 190.396C409.239 190.614 408.23 190.246 407.24 189.513C406.308 188.823 405.278 188.179 404.949 188.083C404.582 187.975 404.819 186.836 405.567 185.119C407.145 181.494 406.813 175.906 404.685 170.266C403.05 165.933 403.112 165.035 405.319 161.147L406.697 158.72L404.392 159.755C401.686 160.971 400.867 162.115 400.743 164.861C400.654 166.834 400.613 166.87 398.471 166.87C396.396 166.87 396.29 166.95 396.286 168.518C396.282 169.899 395.92 170.347 394.042 171.29C391.168 172.735 389.091 176.253 389.627 178.769C390.01 180.567 392.784 183.092 394.376 183.092C395.515 183.092 399.169 181.564 399.169 181.088C399.169 180.886 398.232 180.69 397.087 180.652C394.893 180.58 393.714 179.976 392.786 178.449C391.606 176.508 394.842 173.46 398.083 173.46C401.112 173.46 403.2 176.031 403.2 179.761C403.2 185.05 399.227 189.175 394.133 189.175C387.379 189.175 384.251 183.485 386.791 175.819C387.934 172.369 389.793 170 395.884 164.232C401.936 158.5 403.561 156.476 404.995 152.881C406.25 149.738 406.421 142.315 405.302 139.594C404.379 137.352 401.204 134.567 399.108 134.162L397.412 133.834L400.284 132.575C402.656 131.534 403.42 130.838 404.682 128.566C406.107 126.003 406.192 125.466 405.944 120.617C405.557 113.054 403.84 110.231 394.291 101.46C388.5 96.1407 386.435 92.644 386.054 87.5089C385.834 84.5541 386.001 83.5636 387.014 81.8162C388.435 79.3637 390.936 78.0305 394.044 78.0686C399.386 78.1334 403.203 82.1274 403.198 87.6478C403.193 93.3775 397.723 95.8736 393.65 92.0053C391.928 90.3689 391.912 89.7226 393.555 88.0442C394.469 87.1105 395.486 86.6917 397.008 86.6218C398.194 86.5676 399.165 86.3881 399.167 86.2228C399.168 86.0581 398.288 85.5051 397.211 84.9946C394.396 83.6599 391.747 84.3898 390.356 86.8839C388.705 89.8438 389.463 92.0742 393.192 95.2242C395.207 96.9269 396.29 98.2561 396.29 99.0261C396.29 100.051 396.572 100.21 398.389 100.21C400.453 100.21 400.493 100.248 400.733 102.464C401.061 105.497 401.678 106.36 404.392 107.579L406.697 108.614L405.319 106.186C403.089 102.259 403.06 101.497 404.932 96.1443C407.009 90.2011 407.185 85.9871 405.514 82.1173C404.637 80.0856 404.538 79.383 405.082 79.0783C405.472 78.8599 405.921 78.6748 406.079 78.6657C406.238 78.6571 407.184 78.0153 408.183 77.2397L410 75.8295L408.471 75.2151C407.63 74.8775 406.331 74.1845 405.584 73.6746C404.226 72.7489 404.226 72.7469 405.296 71.0183C407.032 68.2135 406.776 60.8156 404.755 55.4012C403.03 50.7796 403.133 49.5625 405.571 45.8077L406.664 44.1253L405.363 44.4532C403.438 44.9399 400.907 47.5612 400.831 49.1463C400.694 52.0013 400.656 52.0494 398.449 52.2101C396.489 52.3531 396.29 52.5036 396.29 53.8449C396.29 54.9678 395.883 55.5071 394.593 56.0946C390.748 57.845 388.693 62.0423 390.163 65.1396C391.56 68.0843 395.406 68.9977 398.098 67.0238L399.457 66.0272L397.911 66.01C393.684 65.9638 391.296 63.5615 393.086 61.1557C393.631 60.4242 394.997 59.4869 396.121 59.0733C403.608 56.3197 406.017 68.0797 398.94 72.8316C396.01 74.7989 392.569 75.0625 390.015 73.5149C386.893 71.6246 385.827 69.3967 386.041 65.2131C386.314 59.8666 388.573 56.2503 396.002 49.2649C404.017 41.7285 405.67 38.8574 405.987 31.9197C406.324 24.5176 404.755 21.5501 399.449 19.5564L397.154 18.6936L398.993 18.2577C401.602 17.6393 404.685 14.8877 405.435 12.5072C405.786 11.3955 406.074 8.83205 406.076 6.81046L406.079 3.13529L402.768 3.13833C400.947 3.13986 398.461 3.3847 397.244 3.68226C394.347 4.38992 391.253 6.9453 390.293 9.42109L389.527 11.3986L388.821 9.51436C387.17 5.11126 382.263 2.85142 375.158 3.22299C368.678 3.56161 365.589 5.16854 356.871 12.7358C348.954 19.6081 346.709 20.9834 341.841 21.942C337.883 22.7221 335.028 22.1889 332.585 20.2134C327.082 15.7632 330.38 7.42484 338.137 6.17579C344.498 5.15182 348.607 9.18233 345.9 13.7907C344.735 15.7728 343.099 16.521 341.538 15.7855C339.994 15.058 338.538 12.0079 339.053 10.5789C339.4 9.61777 339.335 9.56404 338.532 10.15C338.028 10.5186 337.326 11.5917 336.972 12.5346C335.654 16.0526 339.177 19.3608 343.485 18.649C345.415 18.3302 348.346 16.0572 349.599 13.9073C350.063 13.1125 350.783 12.7668 351.972 12.7668C353.579 12.7668 353.679 12.6486 353.679 10.7391C353.679 9.62386 353.873 8.68555 354.111 8.65361C354.349 8.62168 355.241 8.52232 356.095 8.4326C358.415 8.18877 359.947 7.31078 361.194 5.51072C362.841 3.13225 362.614 2.98575 359.456 4.39397C355.871 5.99381 353.649 5.99989 349.24 4.42287C347.323 3.73701 344.089 3.0258 342.054 2.84229C338.895 2.55741 337.837 2.69275 334.804 3.77148C331.578 4.91863 331.225 4.95564 330.944 4.17651C330.774 3.70456 330.009 2.5716 329.244 1.65915L327.854 0L326.251 2.20155C325.369 3.41207 324.602 4.47102 324.547 4.55467C324.492 4.63831 322.796 4.21655 320.781 3.61788C316.351 2.30243 312.076 2.55183 306.704 4.4396C302.272 5.99736 299.835 5.99178 296.47 4.41678C293.646 3.09474 293.28 3.32488 294.608 5.58625C295.539 7.17037 297.173 7.99563 300.271 8.44425C302.35 8.74587 302.431 8.83357 302.431 10.7984C302.431 12.674 302.546 12.8261 303.85 12.6765C304.998 12.5447 305.59 12.9584 306.939 14.8309C309.871 18.8995 314.482 19.9777 317.518 17.3047C319.09 15.9208 319.242 15.5193 318.978 13.4506C318.815 12.1808 318.264 10.7741 317.754 10.3249C316.901 9.57367 316.826 9.68164 316.826 11.6672C316.826 13.2843 316.471 14.1395 315.413 15.0707C313.697 16.5813 313.36 16.5991 311.453 15.2785C308.27 13.0734 308.434 8.39863 311.749 6.88953C316.332 4.80306 322.501 6.61935 324.901 10.7614C329.055 17.9297 321.967 24.2622 312.72 21.6444C308.022 20.3148 305.617 18.7332 298.366 12.2031C290.547 5.16195 287.532 3.62396 280.799 3.24377C273.572 2.8357 268.091 5.42099 267.012 9.74906L266.607 11.3687L265.481 9.15293C264.862 7.93429 263.815 6.43128 263.156 5.81335C259.912 2.77133 250.868 2.30547 244.529 4.85324C241.879 5.91828 239.673 7.51456 234.771 11.9121C227.039 18.8493 225.231 20.0882 220.95 21.3849C215.109 23.154 210.765 22.311 208.16 18.9015C205.841 15.8661 206.818 10.7218 210.23 8.00526C213.045 5.76418 219.091 5.45141 221.981 7.39747C224.432 9.0485 224.135 13.4055 221.443 15.2694C219.522 16.5996 219.188 16.5828 217.471 15.0707C216.418 14.1446 216.052 13.2706 216.038 11.649L216.018 9.47178L214.886 10.6686C213.251 12.3967 213.35 15.8042 215.077 17.2327C218.243 19.8509 223.143 18.8158 225.791 14.9688C226.961 13.2706 227.63 12.7951 228.869 12.783C230.322 12.7683 230.453 12.6045 230.453 10.7933C230.453 8.67237 231.066 8.20448 233.845 8.20448C235.64 8.20448 236.743 7.52268 238.123 5.5609C239.674 3.35327 239.267 3.08105 236.413 4.41678C233.007 6.01104 230.971 5.99432 226.058 4.3301C221.128 2.66031 213.99 2.4028 211.047 3.7882C210.033 4.26572 208.957 4.65605 208.655 4.65605C208.352 4.65605 207.421 3.62954 206.586 2.37492C205.751 1.12029 204.949 0.09378 204.804 0.09378C204.659 0.09378 203.839 1.20038 202.981 2.55284ZM6.46018 7.31737C6.47054 11.1725 9.4562 14.9232 12.9768 15.5046C16.2388 16.0435 16.9972 15.5041 16.6621 12.8859C16.5026 11.6414 15.872 10.0218 15.2605 9.28726C13.8365 7.5759 10.7213 6.17883 8.32816 6.17782C6.76997 6.17681 6.4573 6.36792 6.46018 7.31737ZM29.4897 6.50732C25.6392 7.62406 23.7315 9.93612 23.7315 13.4856C23.7315 16.3512 24.73 18.1812 27.4329 20.2702C33.9921 25.3404 43.6228 20.1703 39.2851 13.9073C38.4115 12.6461 37.7442 12.2598 36.4405 12.2598C34.2541 12.2598 32.9487 13.8576 32.932 16.555L32.9193 18.5963L31.793 17.329C31.17 16.628 30.6615 15.2633 30.654 14.2738C30.6097 8.03568 40.9625 7.63572 43.3959 13.7811C43.8744 14.9896 44.3339 15.3013 45.6358 15.3013C47.1474 15.3013 47.2879 15.4656 47.4514 17.4248C47.619 19.4414 47.7301 19.5585 49.6436 19.7414C52.3828 20.003 54.1874 21.1284 55.1623 23.1819C56.2805 25.5381 56.1907 25.7925 54.6821 24.5481C51.6722 22.0662 48.7021 21.8609 42.6905 23.7208C37.3394 25.3764 30.8441 25.5852 27.7622 24.2013C23.9186 22.4753 20.8523 19.2117 20.8523 16.8475C20.8523 15.4397 19.8268 15.5224 19.597 16.9488C19.4784 17.6818 18.9498 18.1472 18.1172 18.2516C16.5791 18.4437 16.3649 19.3567 17.8581 19.3567C19.9909 19.3567 23.7528 22.0865 25.1929 24.6793C27.3425 28.5482 27.5912 32.4854 26.0117 37.6316C23.9871 44.2297 23.8996 47.2575 25.6553 50.0228C27.2757 52.5746 27.13 52.7358 24.4881 51.3179C22.308 50.1475 21.5946 49.0931 21.085 46.2868C20.7165 44.2571 20.6404 44.1957 18.4897 44.1957C16.3575 44.1957 16.2872 44.141 16.6051 42.7409C16.8987 41.4472 16.6937 41.1801 14.7567 40.333C11.9138 39.09 10.4259 37.2307 10.0856 34.4953C9.50572 29.8398 13.9269 27.0735 18.1454 29.4525L19.9886 30.4917L18.3763 30.5003C17.4901 30.5049 16.0183 30.8486 15.1062 31.2637C10.6689 33.2838 13.73 37.9794 19.1819 37.5155C23.3284 37.1632 25.2787 30.7892 22.5493 26.5139C20.1498 22.7556 14.873 21.0255 11.0829 22.7546C7.97345 24.1734 6.74464 26.5169 6.74464 31.0265C6.74464 36.5296 8.76636 39.892 16.3776 47.0502C22.8395 53.1276 24.9534 56.0637 26.3687 60.9271C27.6073 65.1832 27.0759 68.6414 24.5071 73.0374L22.4934 76.4834L24.1818 78.8269C26.5991 82.1827 27.5216 86.4535 26.6613 90.3051C25.3518 96.163 23.4102 98.9607 15.5006 106.387C12.6048 109.106 9.81551 112.309 8.7963 114.087C5.68857 119.507 5.89126 125.116 9.31685 128.491C10.8238 129.976 11.2677 130.118 14.372 130.118C17.235 130.118 18.1201 129.887 19.9506 128.658C22.5959 126.881 23.7315 124.653 23.7315 121.238C23.7315 115.83 20.2408 113.337 15.6164 115.442C13.3206 116.487 12.4678 118.457 13.6338 120.023C14.5183 121.212 18.2018 122.452 19.3587 121.95C19.7053 121.8 19.3771 122.151 18.6291 122.73C16.6926 124.229 13.3753 124.141 11.6725 122.546C8.60743 119.674 9.93701 114.445 14.2851 112.271C15.5162 111.656 16.5509 110.858 16.5849 110.497C16.6183 110.137 16.6857 109.417 16.734 108.899C16.8049 108.136 17.1947 107.995 18.7788 108.158C20.7147 108.356 20.7406 108.333 21.0884 106.022C21.4691 103.496 22.7566 101.947 25.5229 100.688L27.2809 99.8879L25.7941 102.121C23.8858 104.988 23.8749 107.587 25.7451 113.734C26.5363 116.333 27.1841 119.502 27.1847 120.775C27.1881 126.286 24.0251 131.129 19.4076 132.681L16.8193 133.552L19.5556 134.683C23.1286 136.16 24.6505 137.682 26.0446 141.173C27.5475 144.938 27.4853 147.498 25.7469 153.388C23.8737 159.734 23.8841 162.344 25.7941 165.212L27.2809 167.446L25.5229 166.646C22.824 165.417 21.5813 163.958 21.1685 161.536C20.8086 159.422 20.6974 159.318 18.6625 159.168C16.7421 159.028 16.5492 158.882 16.6897 157.673C16.8187 156.565 16.4093 156.108 14.3173 155.029C9.53739 152.563 8.48939 147.349 12.1885 144.439C13.1634 143.672 14.41 143.046 14.9594 143.047C15.8772 143.048 19.7007 144.818 19.7007 145.241C19.7007 145.343 18.9395 145.444 18.0095 145.467C12.876 145.596 11.2683 149.912 15.6164 151.892C20.6802 154.197 24.4 150.646 23.5858 144.284C23.0416 140.034 19.0218 136.962 14.0052 136.962C9.2535 136.962 5.98685 141.481 6.65711 147.126C7.21336 151.813 9.36809 155.186 15.3878 160.792C23.7758 168.605 26.2098 172.416 26.9705 178.923C27.3471 182.144 26.0135 186.354 23.7171 189.192L22.4549 190.753L24.5497 194.399C27.1501 198.928 27.6304 202.071 26.3785 206.373C24.9476 211.291 22.8338 214.23 16.4185 220.217C8.83315 227.297 6.74464 230.77 6.74464 236.307C6.74464 240.817 7.97345 243.16 11.0829 244.579C14.9167 246.329 20.151 244.577 22.6132 240.72C23.6261 239.133 23.8155 238.163 23.6261 235.544C23.3785 232.115 22.346 230.524 19.817 229.673C16.9195 228.698 12.4436 231.744 13.1714 234.195C13.5733 235.547 16.096 236.823 18.3763 236.828L19.9886 236.831L18.2611 237.839C15.2668 239.585 12.348 238.995 10.7812 236.328C8.81185 232.975 10.5019 228.914 14.6881 226.94C15.8703 226.382 16.8043 225.584 16.7634 225.166C16.5935 223.432 16.8832 223.138 18.7633 223.138C20.5932 223.138 20.7268 223.017 21.085 221.047C21.5946 218.241 22.308 217.186 24.4881 216.016C27.1202 214.603 27.2906 214.764 25.7204 217.182C23.9641 219.886 23.8875 223.189 25.4774 227.7C28.2298 235.512 27.3707 241.358 22.8908 245.302C21.4944 246.531 19.6494 247.606 18.6256 247.786C16.3212 248.192 16.3212 248.776 18.6256 249.182C19.6494 249.362 21.4944 250.437 22.8908 251.666C27.3661 255.606 28.2488 261.564 25.4987 269.268C23.891 273.771 23.9606 277.077 25.7204 279.786C27.3166 282.244 27.2037 282.346 24.5117 280.882C22.2199 279.635 21.7005 278.877 21.1564 275.984C20.7637 273.897 20.6836 273.83 18.598 273.83C16.5601 273.83 16.4582 273.753 16.6851 272.39C16.8889 271.168 16.6534 270.85 15.1344 270.296C13.0476 269.535 10.6389 267.187 10.1362 265.423C9.58806 263.501 10.4288 260.656 11.9392 259.326C13.6229 257.844 15.9331 257.772 18.2611 259.129L19.9886 260.137L18.4425 260.14C12.4511 260.153 11.1128 265.025 16.5509 267.026C20.4999 268.478 23.7251 265.659 23.7292 260.751C23.7326 256.34 20.9462 253.094 16.1985 251.98C13.8728 251.434 13.2941 251.476 11.3201 252.33C7.98784 253.773 6.74464 256.036 6.74464 260.661C6.74464 266.174 8.80379 269.603 16.4076 276.753C22.8821 282.841 24.9626 285.728 26.3785 290.595C27.6269 294.884 27.149 298.042 24.5739 302.527L22.5032 306.131L24.2434 308.547C26.6705 311.916 27.5095 315.806 26.6728 319.811C25.4411 325.707 23.4643 328.585 15.6797 335.816C10.4455 340.678 8.98575 342.541 7.56692 346.172C5.54174 351.354 6.6122 356.413 10.271 358.955C13.8019 361.409 20.9808 359.245 22.9288 355.14C23.8927 353.109 23.9808 348.71 23.0883 347.173C21.5013 344.442 18.7235 343.662 15.6164 345.076C11.1877 347.092 13.0321 351.613 18.2369 351.499L19.9886 351.46L18.6204 352.444C16.46 353.999 14.6294 354.193 12.8847 353.053C10.6677 351.605 9.82991 349.921 10.104 347.467C10.4172 344.666 11.6939 343.025 14.5638 341.737C16.5314 340.853 16.8676 340.476 16.715 339.322C16.5504 338.079 16.7254 337.941 18.6481 337.8C20.6451 337.654 20.7838 337.528 21.1558 335.519C21.5842 333.206 23.0992 331.437 25.6501 330.269L27.2809 329.522L25.7941 331.756C23.9474 334.529 23.8409 337.821 25.4509 342.346C28.8321 351.848 26.6659 359.4 19.7485 362.221L16.9851 363.348L19.5026 364.265C24.0816 365.932 27.1881 370.756 27.1847 376.193C27.1841 377.467 26.5363 380.635 25.7451 383.234C23.8731 389.386 23.8852 391.98 25.7993 394.855L27.2918 397.096L25.9432 396.485C23.1649 395.225 21.4806 393.355 21.0971 391.106C20.7314 388.959 20.6652 388.901 18.5836 388.901C16.5561 388.901 16.4576 388.825 16.688 387.444C16.9016 386.163 16.6298 385.843 14.429 384.78C11.2568 383.249 9.75505 380.842 10.1017 377.844C10.4414 374.901 12.2933 373.186 15.1309 373.186C16.4755 373.186 17.7746 373.577 18.6291 374.238C19.3771 374.817 19.7053 375.168 19.3587 375.018C18.2018 374.516 14.5183 375.756 13.6338 376.945C12.4678 378.511 13.3206 380.481 15.6164 381.526C20.2535 383.637 23.7315 381.138 23.7315 375.696C23.7315 372.442 22.4416 369.983 19.8084 368.215C18.1454 367.098 17.1717 366.85 14.4653 366.85C10.5376 366.85 8.7773 367.983 7.25482 371.492C4.90948 376.898 7.71893 383.297 15.7177 390.77C23.3244 397.876 25.8545 401.75 26.9417 407.958C27.4519 410.872 26.2922 415.212 24.2434 418.056L22.5032 420.471L24.5739 424.075C27.149 428.56 27.6269 431.718 26.3785 436.007C24.9534 440.905 22.8505 443.83 16.3776 449.918C8.76002 457.082 6.78034 460.381 6.75961 465.951C6.74636 469.337 6.94387 470.091 8.31952 471.922C11.3127 475.906 17.0433 475.96 21.0637 472.043C23.5201 469.649 23.9578 468.362 23.6013 464.575C23.3837 462.27 23.0347 461.499 21.7725 460.544C19.5187 458.837 16.6183 458.956 14.4739 460.844C13.548 461.659 12.7908 462.66 12.7908 463.069C12.7908 464.573 14.7918 466.013 17.2943 466.309L19.7709 466.601L18.1523 467.54C14.9668 469.39 11.6789 468.369 10.4743 465.157C9.16828 461.673 11.2476 457.723 15.1344 456.306C16.6534 455.752 16.8889 455.434 16.6851 454.213C16.4582 452.851 16.5625 452.772 18.575 452.772C20.6255 452.772 20.7193 452.694 21.085 450.681C21.5946 447.875 22.308 446.821 24.4881 445.65C27.0419 444.279 27.4277 444.415 25.957 446.167C23.9843 448.515 23.9278 452.1 25.7647 458.336C27.9505 465.758 27.3177 470.504 23.5904 474.632C22.5435 475.792 19.0304 477.607 17.8293 477.609C17.2753 477.61 16.8216 477.84 16.8216 478.118C16.8216 478.397 17.3346 478.625 17.9623 478.625C18.6988 478.625 19.2308 479.074 19.464 479.893C19.8994 481.419 20.8523 481.576 20.8523 480.121C20.8523 477.763 23.8944 474.519 27.7622 472.751C30.802 471.361 37.2806 471.577 42.6905 473.249C48.7038 475.107 51.6728 474.901 54.6821 472.42C56.1878 471.179 56.3439 471.741 55.1018 473.932C53.8851 476.079 52.8014 476.75 50.0254 477.076C47.6754 477.352 47.6247 477.4 47.4514 479.512C47.2873 481.506 47.1514 481.667 45.6358 481.667C44.3339 481.667 43.8744 481.979 43.3959 483.187C42.0588 486.563 37.5685 488.509 34.0641 487.231C30.6897 486.001 29.7224 483.123 31.6306 479.994L32.6205 478.372L32.9458 480.722C33.4289 484.212 34.9514 485.36 37.8133 484.393C39.14 483.945 40.4304 481.511 40.4304 479.456C40.4304 476.339 35.696 473.958 31.2195 474.823C28.8989 475.271 25.5125 477.882 24.5094 479.995C20.8788 487.645 28.9628 493.019 39.1129 489.702C41.9511 488.775 43.5514 487.645 49.8981 482.087C53.9968 478.499 58.5314 474.98 59.975 474.269C66.8688 470.875 74.058 471.118 79.9435 474.943L81.7401 476.11L84.69 474.363C88.8665 471.889 92.9214 471.23 97.5505 472.275C103.041 473.513 105.772 475.178 113.031 481.716C118.493 486.636 120.398 488.011 123.563 489.315C126.918 490.696 127.91 490.879 131.078 490.702C135.751 490.44 138.546 488.749 139.509 485.601C141.082 480.461 136.162 474.57 130.298 474.57C124.055 474.57 120.693 479.873 124.61 483.543C127.12 485.895 130.097 484.463 130.682 480.62L131.009 478.481L132.049 480.201C133.836 483.152 133.118 485.533 129.995 487.013C126.561 488.642 121.773 486.872 120.104 483.356C119.45 481.976 118.988 481.667 117.583 481.667C115.937 481.667 115.863 481.573 115.863 479.452V477.236L113.176 476.97C110.325 476.687 108.946 475.638 107.846 472.915L107.28 471.513L109.247 472.834C112.132 474.771 114.822 474.903 120.3 473.38C127.033 471.508 130.059 471.258 133.946 472.253C137.929 473.272 141.381 476.082 142.428 479.157L143.146 481.267L144.442 478.806C146.125 475.608 147.4 474.372 150.471 472.963C154.036 471.327 159.508 471.44 165.929 473.282C171.624 474.915 174.245 474.807 177.21 472.815C179.526 471.261 179.607 471.381 178.051 474.066C176.699 476.398 175.437 477.104 172.62 477.104C170.57 477.104 170.567 477.109 170.567 479.386C170.567 481.561 170.49 481.667 168.909 481.667C167.626 481.667 167.096 481.996 166.564 483.128C166.186 483.932 165.101 485.243 164.153 486.043C162.74 487.235 161.927 487.496 159.635 487.496C154.858 487.496 152.402 484.456 154.211 480.784L155.15 478.879L156.092 481.366C156.611 482.735 157.448 484.08 157.953 484.356C160.303 485.639 163.657 482.934 163.657 479.756C163.657 475.186 155.837 473.026 150.89 476.229C147.172 478.636 145.761 484.241 148.044 487.537C150.312 490.811 156.233 491.705 162.339 489.694C165.188 488.756 166.764 487.633 173.186 481.963C181.194 474.895 184.462 472.984 190.177 472.03C194.618 471.289 199.987 472.603 203.249 475.228L204.55 476.275L206.146 475.236C210.686 472.281 214.973 471.28 219.716 472.066C225.37 473.002 228.533 474.844 236.211 481.671C244.424 488.974 247 490.36 252.91 490.657C257.41 490.883 260.082 489.874 261.762 487.313C265.105 482.218 260.156 474.604 253.486 474.579C250.874 474.569 247.68 475.999 246.647 477.641C245 480.256 247.306 484.708 250.308 484.708C252.032 484.708 253.396 483.066 253.887 480.399L254.26 478.372L255.297 480.399C256.715 483.172 256.631 483.923 254.684 485.841C253.21 487.294 252.651 487.496 250.116 487.496C247.72 487.496 246.933 487.248 245.504 486.043C244.556 485.243 243.471 483.932 243.093 483.128C242.56 481.996 242.031 481.667 240.748 481.667C239.179 481.667 239.09 481.55 239.09 479.489C239.09 477.345 239.058 477.31 236.993 477.187C234.062 477.014 232.936 476.361 231.606 474.066C230.069 471.413 230.113 471.356 232.57 472.824C233.734 473.52 235.322 474.229 236.097 474.4C237.52 474.714 238.29 474.584 247.146 472.529C251.418 471.537 252.463 471.465 255.437 471.952C260.103 472.716 262.876 474.532 264.947 478.182C266.611 481.113 266.644 481.137 267.01 479.668C267.624 477.207 270.442 474.289 273.444 473.007C277.436 471.3 282.775 471.388 289.104 473.263C294.764 474.94 297.331 474.832 300.375 472.789C302.749 471.195 302.855 471.345 301.277 474.066C299.926 476.398 298.664 477.104 295.847 477.104C293.797 477.104 293.793 477.109 293.793 479.386C293.793 481.568 293.721 481.667 292.113 481.667C290.745 481.667 290.238 482.019 289.378 483.561C286.966 487.892 281.379 488.974 278.102 485.745C276.271 483.941 276.152 482.606 277.607 480.201L278.648 478.481L278.974 480.62C279.576 484.567 282.541 485.891 285.2 483.4C287.266 481.463 287.173 477.961 285.01 476.323C281.65 473.779 276.498 474.081 273.162 477.018C269.373 480.354 268.791 484.701 271.681 488.089C273.403 490.107 276.291 490.964 280.475 490.698C285.835 490.356 288.694 488.751 296.723 481.575C302.199 476.68 304.743 474.785 307.13 473.823C314.468 470.865 320.248 471.202 325.902 474.917C327.778 476.149 327.783 476.15 329.357 475.173C335.84 471.153 341.45 470.777 348.868 473.866C351.292 474.876 353.83 476.771 358.981 481.418C367.419 489.031 370.31 490.538 376.481 490.538C378.934 490.538 381.187 490.246 382.115 489.809C387.758 487.151 386.899 478.691 380.674 475.611C373.824 472.221 366.542 477.471 370.425 483.001C372.768 486.339 376.691 484.729 376.731 480.413L376.751 478.372L377.91 479.599C378.778 480.516 379.027 481.407 378.899 483.13C378.752 485.108 378.45 485.599 376.771 486.592C373.163 488.727 369.076 487.625 366.841 483.915C365.74 482.089 365.188 481.667 363.901 481.667C362.407 481.667 362.316 481.536 362.316 479.386V477.104H360.142C357.45 477.104 355.532 475.971 354.482 473.759C353.351 471.377 353.434 471.312 355.673 472.815C358.553 474.749 361.204 474.882 366.635 473.366C372.939 471.606 375.487 471.322 379.008 471.987C384.071 472.943 387.323 475.646 389.129 480.399C389.48 481.324 389.563 481.29 390.071 480.019C390.476 479.006 391.017 478.625 392.053 478.625C393.977 478.625 393.3 477.82 391.043 477.423C388.248 476.931 384.502 473.313 383.398 470.039C382.112 466.228 382.219 464.511 384.175 457.562C386.046 450.913 385.95 448.846 383.644 446.101C382.325 444.53 382.466 444.364 384.38 445.232C387.05 446.442 388.211 447.848 388.583 450.32L388.953 452.772H391.193C393.277 452.772 393.409 452.858 393.082 454.004C392.786 455.042 393.105 455.444 395.107 456.557C398.557 458.474 399.866 460.556 399.563 463.641C399.374 465.572 398.963 466.415 397.772 467.316C395.878 468.75 393.416 468.819 391.604 467.49L390.244 466.493L391.568 466.476C393.491 466.452 396.151 465.107 396.569 463.949C397.395 461.658 394.209 459.203 390.739 459.456C387.69 459.679 385.925 462.005 385.925 465.799C385.925 469.011 386.846 470.8 389.592 472.922C392.261 474.985 395.564 475.475 398.429 474.233C401.667 472.83 402.912 470.527 402.912 465.942C402.912 460.402 400.862 457.007 393.123 449.731C386.543 443.543 384.05 439.877 383.006 434.85C382.191 430.927 382.685 428.43 385.14 424.058L387.173 420.436L385.694 418.469C384.881 417.387 383.787 414.971 383.262 413.099C382.472 410.279 382.42 409.197 382.963 406.776C384.063 401.866 387.098 397.245 392.542 392.196C398.638 386.54 400.712 384.006 402.109 380.508C404.117 375.476 403.304 370.713 399.999 368.158C395.16 364.418 386.844 367.882 386.066 373.961C385.464 378.66 387.645 382.313 391.048 382.309C393.202 382.306 396.197 380.534 396.633 379.004C397.161 377.153 395.018 375.214 392.447 375.214C391.394 375.214 390.532 374.994 390.532 374.725C390.532 373.944 392.592 373.186 394.712 373.186C400.37 373.186 401.474 381.535 396.181 384.297C393.155 385.876 392.793 386.294 393.203 387.734C393.571 389.022 393.523 389.048 391.258 388.78L388.936 388.506L388.576 390.895C388.191 393.448 386.917 395.013 384.227 396.238L382.561 396.996L384.064 394.629C385.946 391.664 385.96 388.982 384.121 383.831C383.157 381.134 382.767 378.852 382.778 375.974C382.791 372.452 383.018 371.554 384.503 369.145C386.284 366.256 389.078 364.194 391.885 363.698L393.525 363.408L391.452 362.78C383.512 360.377 380.661 352.55 384.162 342.771C385.986 337.676 385.962 334.962 384.066 331.977L382.561 329.606L384.274 330.386C387.033 331.642 388.12 332.915 388.54 335.384C388.931 337.677 388.959 337.702 391.162 337.702C393.304 337.702 393.381 337.761 393.185 339.245C393.006 340.598 393.254 340.911 395.202 341.786C399.184 343.574 400.777 347.546 398.906 351.018C397.585 353.469 395.387 354.24 392.622 353.223C390.074 352.286 389.91 351.389 392.285 351.389C394.036 351.389 396.866 349.503 396.866 348.337C396.866 346.474 393.66 344.275 390.993 344.308C388.12 344.343 385.925 347.102 385.925 350.679C385.925 356.05 389.239 359.491 394.799 359.897C397.563 360.098 398.019 359.974 399.926 358.5C403.043 356.091 403.863 352.639 402.575 347.35C401.765 344.026 398.722 340.075 392.605 334.407C383.129 325.624 380.373 317.499 384.44 310.328C385.152 309.074 386.067 307.578 386.474 307.005C387.116 306.101 386.98 305.599 385.442 303.2C382.96 299.329 382.202 295.849 382.985 291.921C384.012 286.772 386.463 283.134 393.123 276.871C400.862 269.595 402.912 266.2 402.912 260.661C402.912 256.076 401.667 253.772 398.429 252.369C394.476 250.656 389.126 252.617 386.76 256.645C384.713 260.13 386.376 266.138 389.696 267.249C392.717 268.26 397.46 265.125 396.585 262.697C396.154 261.501 393.519 260.151 391.568 260.126L390.244 260.109L391.604 259.113C394.054 257.315 397.326 258.002 398.876 260.64C400.845 263.993 399.154 268.055 394.967 270.028C393.085 270.915 392.859 271.217 393.159 272.436C393.49 273.778 393.416 273.83 391.153 273.83C389.024 273.83 388.804 273.95 388.804 275.113C388.804 277.292 387.237 279.842 385.24 280.914C382.654 282.302 382.183 282.203 383.503 280.547C386.055 277.343 386.133 275.979 384.16 268.959C382.158 261.835 382.148 258.781 384.118 254.861C385.365 252.379 388.834 249.569 391.155 249.16C393.346 248.775 393.293 248.184 391.031 247.786C388.248 247.296 384.5 243.671 383.398 240.404C381.99 236.229 382.161 234.334 384.709 225.903C385.844 222.147 385.875 221.633 385.109 219.392C384.652 218.054 383.831 216.524 383.285 215.993C382.009 214.752 382.833 214.762 385.169 216.016C387.349 217.186 388.062 218.241 388.572 221.047C388.941 223.081 389.012 223.138 391.19 223.138C393.316 223.138 393.413 223.208 393.148 224.536C392.908 225.735 393.171 226.078 394.993 226.944C399.159 228.924 400.839 232.985 398.876 236.328C397.326 238.966 394.054 239.653 391.604 237.855L390.244 236.859L391.568 236.842C393.519 236.817 396.154 235.467 396.585 234.271C397.46 231.843 392.717 228.708 389.696 229.719C386.376 230.83 384.713 236.838 386.76 240.323C389.127 244.354 394.469 246.309 398.444 244.599C403.464 242.44 404.59 235.757 401.055 229.106C399.795 226.736 397.659 224.298 393.216 220.159C386.582 213.979 384.08 210.299 382.993 205.119C382.19 201.3 382.697 198.775 385.139 194.426L387.171 190.806L385.651 188.687C383.253 185.342 382.169 180.687 382.963 177.142C384.091 172.107 387.061 167.587 392.549 162.555C398.796 156.827 400.795 154.318 402.136 150.527C404.042 145.136 403.297 141.074 399.926 138.468C398.019 136.994 397.563 136.87 394.799 137.071C389.002 137.495 385.596 141.225 386.042 146.662C386.241 149.08 386.596 149.92 387.941 151.156C388.939 152.073 390.182 152.676 391.071 152.674C393.003 152.672 396.089 150.993 396.559 149.689C397.275 147.703 395.105 145.692 392.002 145.465C389.983 145.318 390.16 144.705 392.506 143.721C395.097 142.633 397.56 143.452 398.841 145.829C400.832 149.522 399.313 153.336 395.098 155.229C392.938 156.199 392.741 156.444 393.045 157.784C393.371 159.218 393.309 159.266 391.159 159.266C388.976 159.266 388.928 159.307 388.559 161.473C388.148 163.887 386.843 165.413 384.134 166.646L382.376 167.446L383.973 165.046C385.977 162.036 386.02 159.377 384.149 154.197C380.887 145.163 383.216 137.476 390.061 134.684L392.892 133.53L391.111 132.983C386.404 131.539 383.306 127.646 382.682 122.388C382.409 120.085 382.714 118.132 384.129 113.127C386.064 106.283 386.02 105.194 383.664 101.68L382.506 99.9522L384.772 100.97C387.391 102.146 388.113 103.128 388.584 106.154L388.924 108.338L391.218 108.145C393.486 107.954 393.509 107.97 393.321 109.552C393.153 110.962 393.403 111.285 395.43 112.278C401.502 115.255 400.832 123.782 394.526 123.782C393.306 123.782 391.824 123.381 391.076 122.848L389.766 121.913L391.552 121.869C396.711 121.74 398.472 117.841 394.367 115.638C389.269 112.901 385.234 116.507 386.071 123.05C386.638 127.472 391.19 130.724 396.128 130.234C400.986 129.752 403.703 125.684 403.026 119.908C402.532 115.698 400.142 111.941 394.802 106.98C386.544 99.3085 383.78 95.2349 382.757 89.2253C382.219 86.0667 383.309 81.8334 385.413 78.9126L387.154 76.4971L385.13 72.8929C382.697 68.5593 382.191 66.0313 382.993 62.2152C384.067 57.0973 386.563 53.4054 393.111 47.2484C400.863 39.9599 402.912 36.5681 402.912 31.0265C402.912 26.4414 401.667 24.138 398.429 22.7348C394.476 21.0219 389.126 22.9827 386.76 27.0107C385.441 29.2553 385.682 33.589 387.239 35.6298C389.364 38.4148 393.869 38.2622 396.05 35.3317C396.587 34.6104 396.807 33.6777 396.585 33.0628C396.127 31.7909 393.469 30.5099 391.28 30.5054L389.668 30.5023L391.396 29.4951C394.39 27.7492 397.309 28.3388 398.876 31.0057C400.81 34.2986 399.343 38.0574 395.232 40.3421C393.358 41.3833 393.028 41.8117 393.262 42.8945C393.531 44.1303 393.419 44.1957 391.031 44.1993L388.517 44.2028L388.394 46.5463C388.263 49.0581 387.261 50.4136 384.66 51.5978C383.804 51.9876 383.005 52.3064 382.885 52.3064C382.765 52.3064 383.435 50.9413 384.375 49.273L386.083 46.2391L384.212 39.529C382.159 32.1645 382.14 29.1646 384.118 25.2263C385.365 22.7449 388.834 19.9346 391.155 19.526C393.15 19.1747 393.362 18.4792 391.543 18.2516C390.632 18.1371 390.151 17.6418 389.909 16.5686L389.567 15.0479L389.111 16.5686C387.784 21.0011 384.296 23.9479 379.185 24.9561C375.836 25.6166 372.082 25.2101 366.725 23.6062C361.514 22.0459 359.012 22.0601 356.325 23.6655C355.158 24.3625 354.11 24.9328 353.995 24.9328C353.35 24.9328 354.626 22.6628 355.997 21.3707C357.277 20.1647 358.076 19.8636 360.001 19.8636H362.405L362.225 17.7092C362.052 15.6369 362.112 15.5492 363.807 15.4027C365.243 15.2785 365.793 14.8466 366.771 13.0739C368.892 9.2315 374.373 8.09043 377.658 10.8075C379.397 12.2451 379.499 15.4889 377.864 17.329L376.737 18.5963L376.725 16.555C376.697 12.0566 372.272 10.5733 370.069 14.324C366.733 20.003 374.609 24.7823 381.151 21.0478C387.402 17.4791 387.603 9.47634 381.505 6.92907C379.925 6.26856 378.456 6.11192 375.555 6.29492C369.982 6.64571 366.966 8.29776 359.48 15.0986C350.635 23.1343 346.946 24.9916 339.792 25.0119C335.887 25.0225 333.063 24.1334 329.373 21.7321L327.776 20.6929L326.476 21.7397C323.173 24.399 317.855 25.6795 313.269 24.9196C307.435 23.9529 304.383 22.1858 296.672 15.3115C291.636 10.8212 288.61 8.53956 286.596 7.71328C276.758 3.67871 268.052 7.88816 270.261 15.6116C271.987 21.648 280.051 24.4 285.01 20.6453C287.173 19.0074 287.266 15.5051 285.2 13.5682C282.541 11.0772 279.576 12.4013 278.974 16.3481L278.648 18.4873L277.607 16.7674C275.78 13.7481 276.578 11.3109 279.841 9.94778C283.593 8.38038 288.041 10.1211 289.791 13.8399C290.323 14.9719 290.852 15.3013 292.136 15.3013C293.708 15.3013 293.793 15.4149 293.793 17.5054C293.793 19.6071 293.873 19.7115 295.522 19.7526C298.47 19.8266 299.497 20.3624 300.989 22.603C302.679 25.1427 302.829 25.9041 301.423 24.8193C299.732 23.5139 296.818 22.3977 295.118 22.4048C294.231 22.4084 291.432 23.0126 288.899 23.7471C282.718 25.5401 277.312 25.6146 273.444 23.9615C270.273 22.6066 267.525 19.635 266.951 16.9407L266.569 15.1513L265.572 17.4639C264.075 20.9368 262.409 22.6927 259.384 23.9854C255.575 25.6136 250.128 25.5289 243.984 23.7471C241.451 23.0126 238.652 22.4084 237.766 22.4048C236.066 22.3977 233.151 23.5139 231.46 24.8193C230.151 25.829 230.188 25.349 231.606 22.9021C232.957 20.5698 234.22 19.8636 237.037 19.8636C239.087 19.8636 239.09 19.8596 239.09 17.5825C239.09 15.4073 239.167 15.3013 240.748 15.3013C242.031 15.3013 242.56 14.9719 243.093 13.8399C243.471 13.0364 244.556 11.725 245.504 10.9251C248.831 8.11932 254.984 9.36888 256.038 13.0638C256.394 14.3113 255.061 17.837 254.235 17.8349C253.981 17.8339 253.746 17.1607 253.714 16.338C253.571 12.7738 250.175 11.0777 247.757 13.3624C245.259 15.7231 245.652 19.4824 248.573 21.1674C254.479 24.5739 262.728 20.1485 262.842 13.5114C262.924 8.77274 259.117 6.00445 252.91 6.28782C247.024 6.55649 244.454 7.94342 236.211 15.2988C228.499 22.1792 225.437 23.955 219.614 24.9196C215.029 25.6795 209.71 24.399 206.407 21.7397L205.107 20.6929L203.528 21.7205C199.161 24.5628 194.565 25.6709 190.18 24.9389C184.376 23.9697 181.275 22.1797 173.528 15.3267C165.341 8.08485 162.603 6.58538 156.988 6.26755C150.593 5.90561 146.958 8.58366 146.958 13.6564C146.958 16.8469 149.348 20.3168 152.432 21.6054C156.517 23.3122 162.066 21.8102 163.344 18.6521C164.185 16.5722 162.662 13.1779 160.603 12.5427C158.354 11.8492 157.228 12.6076 156.069 15.5979L155.104 18.0894L154.188 16.1844C152.416 12.4971 154.87 9.47178 159.635 9.47178C161.927 9.47178 162.74 9.73335 164.153 10.9251C165.101 11.725 166.186 13.0364 166.564 13.8399C167.096 14.9719 167.626 15.3013 168.909 15.3013C170.48 15.3013 170.567 15.4154 170.567 17.5004C170.567 19.6639 170.599 19.7004 172.588 19.7663C175.427 19.8601 176.72 20.6052 178.062 22.9219C179.392 25.2162 179.201 25.3612 176.819 23.8678C174.1 22.163 171.398 22.1179 165.929 23.6863C155.006 26.8191 147.227 24.7528 144.268 17.9323L143.286 15.6689L142.529 17.5936C139.739 24.6885 131.725 26.9052 120.501 23.6863C114.808 22.0535 112.186 22.161 109.224 24.1496L107.235 25.4853L107.791 24.1983C108.86 21.7225 110.239 20.3857 112.223 19.9037C113.322 19.636 114.591 19.5422 115.043 19.6948C115.68 19.9103 115.863 19.45 115.863 17.6367C115.863 15.388 115.927 15.3013 117.564 15.3013C118.944 15.3013 119.446 14.9642 120.228 13.5134C121.312 11.5025 123.425 9.85501 125.51 9.39422C127.833 8.88122 131.296 10.0862 132.271 11.7473C133.381 13.6356 133.336 14.6413 132.049 16.7674L131.009 18.4873L130.682 16.3481C130.094 12.4834 127.119 11.0736 124.579 13.4546C123.007 14.9272 122.486 17.6834 123.473 19.3025C125.468 22.5741 131.816 23.2858 135.706 20.6742C138.421 18.8513 139.626 16.6528 139.679 13.4288C139.758 8.57453 136.154 6.00091 129.683 6.29086C123.835 6.55294 121.256 7.95457 112.934 15.3931C107.458 20.2879 104.914 22.1833 102.527 23.1449C95.5967 25.938 90.0515 25.7814 84.7522 22.6415L81.8944 20.9489L78.6744 22.6557C74.4962 24.871 71.0533 25.5158 66.9627 24.8502C61.2321 23.9174 57.7575 21.91 50.391 15.2755C42.474 8.14517 38.7369 6.14791 33.4381 6.21685C31.7418 6.23865 29.9648 6.36944 29.4897 6.50732ZM397.483 7.06493C394.811 8.26379 393.343 10.1713 392.994 12.893C392.729 14.9627 392.825 15.1893 394.082 15.4671C398.509 16.445 403.2 12.4423 403.2 7.68743C403.2 6.32077 403.022 6.17681 401.329 6.17782C400.299 6.17782 398.569 6.57727 397.483 7.06493ZM11.8804 481.705C10.9044 481.954 9.6491 482.603 9.09055 483.146C7.83698 484.366 6.51603 487.532 6.48206 489.397C6.4596 490.637 6.66402 490.791 8.32816 490.79C10.7213 490.789 13.8365 489.392 15.2605 487.681C15.872 486.946 16.5031 485.326 16.6626 484.08C16.9252 482.026 16.8256 481.785 15.5916 481.494C14.0202 481.124 14.1895 481.115 11.8804 481.705ZM393.471 481.605C392.388 482.234 392.965 485.96 394.418 487.706C395.839 489.414 398.956 490.789 401.407 490.79L403.357 490.791L403 488.502C402.561 485.686 401.287 483.432 399.589 482.469C397.886 481.504 394.476 481.022 393.471 481.605Z" fill="#987863" fill-opacity="0.826"/>
</svg>
