<svg width="480" height="37" viewBox="0 0 480 37" fill="none" xmlns="http://www.w3.org/2000/svg">
<path d="M0 0H480V26.2162C478.24 25.5077 477.059 25.5838 474.5 26.6706L472.5 28.4882L471.5 30.7601L466.5 31.6689H462L457.5 30.7601L453.5 29.397L449.5 28.4882L442.5 26.2162L439.5 26.6706L437 28.4882L435.5 31.6689L432.5 35.3041C430.602 37.0997 429.527 37.795 427.5 35.7585L422.5 32.5777L417 29.397L412.5 26.2162L409.5 24.853L406 23.9442H401.5H396L390 26.2162L383 26.6706L378.5 27.5794L375 28.4882L371.5 31.2145L363 35.3041L360.5 35.7585H357.5L359.5 33.4865L360.5 30.7601L358.5 27.5794H354L352.5 28.4882L351 28.9426L348.5 28.4882L347 26.6706H335.5L330 27.5794L328 28.4882L325.5 28.9426L323.5 28.4882L321.5 27.5794L318.5 26.6706L316 25.3074L312.5 23.9442H309L300 26.2162L281.5 27.5794L278.5 28.4882L277.5 29.397L270 30.3057H268.5L266.5 29.397L265.5 28.0338L264 27.5794L263 28.4882L261.5 28.9426L260.5 28.0338L258 27.5794L255.5 27.125L252.5 27.5794L248 26.2162H240L235.5 28.9426L234 30.3057L233 32.1234L231 33.4865L230 32.5777L229.5 31.6689L227.5 30.3057L223.5 29.8514L221.5 28.9426H218.134L214 28.4882H212L209.5 27.5794L208 28.0338L206.5 28.9426L204.853 29.2751H202.749L201 29.397L200 29.5323L199 29.8514L197.815 30.0176L197 29.8514L196.5 29.5323L196.212 29.2751H195.5L195 28.9426H194L193 29.397L192 29.8514L191.5 30.0176L191 30.3057H189.5L188.5 30.7601L187 30.3057L186 29.8514L184.5 28.9426L183.5 28.0338L182.5 27.5794H181.5L180.5 28.0338V28.4882L180 28.9426L179.5 29.397L176 30.3057L171 29.8514L167 28.9426L162.5 29.397L160.5 30.3057H157.5L156 30.7601L155.5 29.8514L154 29.397L153 28.9426H149L148 29.397L144.5 30.3057L141 30.7601L137.5 31.2145L135 30.7601L133 29.8514L131 28.9426L129.5 28.0338L128.5 27.5794L125 27.125L122.5 27.5794H121L117 28.9426L113.5 29.8514L110.5 30.7601L107.5 31.2145L105 31.6689H104L103 31.2145L102.5 30.7601L100 29.7264H98L95.5 28.4882L93 28.9426H91L90 28.4882L86 28.0338C87.8316 29.4985 87.3419 30.4406 86.5 32.1234L85.5 32.5777H84.5C85.2906 30.9102 84.2827 29.8885 82 28.0338L79.5 27.5794L77 28.0338L75.5 28.4882L74 28.0338C70.8182 26.3775 69.0849 26.3237 65.5 27.5794L63.5 28.9426L62 31.2145L58 29.8514L53.5 28.4882L50.5 27.125H44.5L39.5 28.9426L33.5 29.8514H30H26.5L23 28.9426L18 27.125L13.5 28.9426L9.5 31.2145L5.5 29.8514L0 26.2162V0Z" fill="#D2E2EC" fill-opacity="0.77"/>
</svg>
