<svg width="100" height="76" viewBox="0 0 100 76" fill="none" xmlns="http://www.w3.org/2000/svg">
<path fill-rule="evenodd" clip-rule="evenodd" d="M65.273 0.700419C64.7291 1.24583 64.1909 1.97304 64.0762 2.3168C63.9199 2.7875 62.7721 2.71541 59.4265 2.02476C56.9834 1.52062 54.6445 1.23904 54.2287 1.3989C53.7431 1.58645 52.4697 5.58874 50.6669 12.5965C45.9969 30.7471 42.5721 40.3874 39.7002 43.4634C38.0709 45.2094 26.3862 48.4296 27.3491 46.8675C27.5408 46.5567 29.4593 45.4643 31.6127 44.4393C35.5611 42.5602 36.7803 41.2865 35.4428 40.437C34.2293 39.667 31.2573 39.8953 24.4933 41.2792C16.5704 42.8997 15.4341 43.3412 13.8996 45.3912C12.6622 47.0447 8.39438 55.2399 7.40181 57.8688C6.87713 59.2589 6.80001 59.2871 5.61779 58.5103C3.94787 57.4132 2.96677 57.909 1.35729 60.6627L0 62.9854L1.20567 64.0182C3.93693 66.3566 12.0374 71.55 16.3073 73.7003L20.8737 76L21.9454 74.8465C23.4528 73.2244 24.3682 69.9874 23.5867 69.0429C23.0969 68.451 23.447 68.1422 25.4634 67.3868C26.8265 66.8764 30.2877 65.3593 33.155 64.0156C37.4316 62.0111 38.8347 61.0451 40.9705 58.6357L43.573 55.6986L47.2203 57.4357C52.5114 59.9553 57.3101 61.0211 61.4997 60.6057C64.7536 60.2839 70.4433 61.229 81.4631 63.9226C84.0214 64.5479 86.5026 63.3307 87.714 60.8565C88.2064 59.8508 89.2922 56.5596 90.1274 53.5426C90.9632 50.5256 92.8576 43.8683 94.3374 38.748C96.6857 30.6243 99.1361 20.284 99.951 15.0598C100.267 13.0338 99.1111 12.1608 94.8949 11.2408C89.0562 9.96718 88.8306 9.83918 89.053 7.9292C89.2219 6.48052 89.0359 6.11116 87.8667 5.57725C86.1566 4.7957 85.6913 5.05848 85.2542 7.05257C85.0661 7.91144 84.7055 8.6141 84.4528 8.6141C83.5937 8.6141 74.8486 6.4779 71.3572 5.41529L67.8793 4.35686L68.1606 2.61771C68.3873 1.21814 68.2294 0.764678 67.352 0.293974C66.4668 -0.18091 66.076 -0.104636 65.273 0.700419ZM65.8212 1.92707C64.9516 2.799 65.0396 3.91228 65.9775 3.91228C66.4636 3.91228 66.759 3.41911 66.759 2.60622C66.759 1.11679 66.6835 1.06246 65.8212 1.92707ZM53.9604 3.7519C53.7801 4.55852 53.4268 6.0281 53.1757 7.01757C52.9245 8.00704 52.7995 8.89673 52.8975 8.99494C53.1215 9.22011 64.008 12.0417 69.8853 13.3985C73.8701 14.3184 84.8098 17.5115 93.0447 20.1576C94.749 20.7056 96.2965 20.9773 96.483 20.761C97.0921 20.0562 98.5421 15.9317 98.5421 14.9036C98.5421 13.5672 98.2722 13.4397 93.0098 12.2867L88.4789 11.2936L87.4806 12.5662C86.9319 13.2658 86.2822 13.8383 86.0368 13.8383C85.1818 13.8383 83.9532 12.188 83.9532 11.0392C83.9532 9.98024 83.2623 9.71014 75.8308 7.86076L67.7089 5.84003L66.559 7.28557C64.9531 9.30474 63.3817 8.94218 63.3447 6.54373C63.3176 4.78368 63.2619 4.74032 59.958 3.91072C58.1104 3.4468 56.0789 2.89146 55.4437 2.67623C54.4684 2.34658 54.2381 2.51323 53.9604 3.7519ZM64.4655 5.34163C63.9611 5.84682 64.1091 7.56925 64.6567 7.56925C64.9328 7.56925 65.3976 7.12258 65.6894 6.57664C66.0838 5.83741 66.0348 5.51299 65.4976 5.30663C65.1011 5.15408 64.6369 5.16976 64.4655 5.34163ZM86.277 7.63507C85.8727 8.9124 86.2353 9.37266 87.3175 8.95628C88.333 8.56551 88.3637 7.25162 87.3665 6.86816C86.9043 6.69053 86.4818 6.98779 86.277 7.63507ZM50.5971 17.3647C47.7241 29.8564 45.0522 37.6097 42.2689 41.5289C41.6968 42.335 41.2284 43.1212 41.2284 43.2764C41.2284 43.4321 42.5247 42.9844 44.1092 42.2817C47.4063 40.8194 50.4851 40.6 50.942 41.7943C51.3041 42.7409 49.3591 46.8263 46.3877 51.3609C45.1971 53.1779 44.4286 54.8418 44.6797 55.0581C45.6582 55.9023 52.7635 58.7663 53.8681 58.7621C55.636 58.7543 60.1904 55.9243 62.0239 53.6941C63.574 51.8092 63.8074 51.7109 66.8987 51.6462C68.6848 51.6085 71.304 51.1728 72.7202 50.6771C76.2101 49.4562 82.017 45.5448 83.9235 43.1317C85.8982 40.6319 91.1049 31.8562 93.7861 26.5092L95.84 22.4139L92.632 21.2918C88.0615 19.6931 74.0468 15.6355 67.9923 14.1586C65.1647 13.469 60.5624 12.2914 57.7644 11.5428C54.967 10.7942 52.5817 10.1814 52.4634 10.1814C52.3457 10.1814 51.5058 13.4141 50.5971 17.3647ZM85.2136 10.7722C84.7696 11.4927 85.7893 12.4863 86.513 12.0381C86.8246 11.8448 87.0794 11.4911 87.0794 11.2513C87.0794 10.5565 85.5835 10.172 85.2136 10.7722ZM7.8723 16.8303C6.80522 18.9779 4.16046 21.6747 3.12152 21.6747C1.49224 21.6747 1.55841 22.6558 3.24656 23.5309L4.89772 24.3871L4.55019 28.5655C4.13962 33.4966 4.92221 33.9496 6.3363 29.5999C7.49612 26.0317 8.64291 24.8092 10.8286 24.8092C11.7874 24.8092 12.5715 24.6687 12.5715 24.4963C12.5715 24.3244 11.8504 23.5084 10.9688 22.6825C9.52346 21.3289 9.3807 20.9151 9.51043 18.4592C9.67352 15.3826 8.94928 14.6627 7.8723 16.8303ZM22.5378 18.0574C21.4932 18.4769 21.3515 18.804 21.6229 20.1644C21.8813 21.46 21.6396 22.1449 20.3839 23.6719C16.7851 28.0498 19.6946 34.8434 25.5025 35.6245C30.1559 36.2503 33.1524 33.12 33.1524 27.6324C33.1524 24.8939 32.9486 24.1536 31.881 23.0142C31.1818 22.2676 29.7276 21.3921 28.6496 21.0682C27.1261 20.6105 26.6165 20.1471 26.3622 18.9873C26.0105 17.3804 24.8987 17.1103 22.5378 18.0574ZM23.904 18.9555C23.4028 19.0563 22.9922 19.5923 22.9922 20.1456C22.9922 21.239 23.385 21.3832 24.4761 20.6899C25.4546 20.0682 25.0138 18.7319 23.904 18.9555ZM6.54783 20.8749C5.0186 22.4254 4.98265 22.5623 5.66729 24.2445C6.37433 25.9826 6.38788 25.9884 7.16109 24.8813C7.59042 24.267 8.30476 23.7644 8.7492 23.7644C9.31609 23.7644 9.44322 23.4917 9.17593 22.8502C8.96648 22.3471 8.64864 21.3336 8.46889 20.5975L8.14272 19.2585L6.54783 20.8749ZM23.7737 22.4771C20.4516 24.1693 19.1892 27.3984 20.5621 30.6923C21.5833 33.1435 23.5528 34.3868 26.4133 34.3868C33.169 34.3868 34.7842 24.0214 28.3093 22.218C25.812 21.5227 25.6271 21.5331 23.7737 22.4771ZM23.396 23.534C21.5635 24.5313 20.9081 25.8107 20.9081 28.392C20.9081 31.3077 22.9323 33.6904 25.4093 33.6904C28.0238 33.6904 30.2497 32.3395 31.1349 30.2153C33.107 25.4832 27.9675 21.0462 23.396 23.534ZM24.2427 24.5088C21.5682 25.6786 21.0508 29.1793 23.2293 31.363C24.6637 32.8018 25.2472 32.8958 27.6148 32.0683C29.5254 31.4007 30.2867 30.2346 30.2867 27.9783C30.2867 26.4585 28.7788 24.2868 27.7242 24.2868C27.4611 24.2868 26.9333 24.1776 26.5519 24.0444C26.17 23.9117 25.131 24.1202 24.2427 24.5088ZM59.724 25.6436C57.9359 27.5781 57.1824 30.2383 57.1491 34.7353C57.1241 38.0621 57.3492 39.1069 58.6382 41.6574C59.9684 44.2904 60.3456 44.6614 61.6915 44.6614C63.712 44.6614 68.813 41.9024 71.2128 39.5113C73.4851 37.2482 76.1257 32.829 76.133 31.2795C76.1397 29.7613 74.2031 27.4214 72.9396 27.4214C71.5812 27.4214 69.977 28.2703 68.1299 29.9666C66.7252 31.257 66.6559 31.2711 66.9805 30.2022C67.4255 28.7384 66.1104 25.5798 64.7531 24.851C62.9753 23.8971 61.0589 24.199 59.724 25.6436ZM61.1517 26.1393C58.1359 28.2572 57.6722 35.2525 60.1826 40.7515C61.3721 43.3558 61.6623 43.6525 62.7101 43.3344C67.9215 41.7514 75.6317 33.8143 74.8794 30.8077C74.041 27.4595 70.5777 28.3377 67.4593 32.6895C66.4297 34.1261 65.3236 35.2034 65.0011 35.0838C64.3748 34.8513 64.3769 34.8225 65.3001 31.3615C65.8155 29.4301 65.7753 28.8941 65.0297 27.7531C63.7287 25.7632 62.447 25.2293 61.1517 26.1393ZM87.8698 39.2266C81.1615 49.3773 76.0032 54.7771 70.2291 57.6932L66.6653 59.4935L73.0948 60.6569C76.6311 61.2964 80.3263 62.103 81.3068 62.4494C83.7203 63.3009 83.8802 63.023 86.5088 53.4104C87.7067 49.0293 89.8049 42.0952 91.1711 38.0004C92.5377 33.9057 93.6413 30.5585 93.6241 30.5617C93.6064 30.5648 91.0173 34.4642 87.8698 39.2266ZM92.4434 38.5239C91.2852 42.3303 89.3271 48.8538 88.0928 53.0201C86.8579 57.1865 85.7294 60.9479 85.5845 61.3789C85.3652 62.0309 85.459 62.0502 86.1426 61.4939C86.5943 61.1261 87.2341 59.7155 87.565 58.3593C87.8958 57.0031 89.7007 50.5261 91.5759 43.9665C93.4506 37.4064 94.8871 31.9408 94.7672 31.8207C94.6474 31.7005 93.6017 34.717 92.4434 38.5239ZM24.1207 42.7566C18.442 44.1003 16.907 44.6671 15.7144 45.8634C14.3738 47.2076 9.39268 56.57 8.70231 59.0421C8.45221 59.9386 9.30671 60.6376 14.294 63.6133C17.5318 65.5447 20.5506 67.1256 21.0029 67.1256C21.959 67.1256 35.559 61.2781 37.3696 60.0885C40.5979 57.968 50.0458 43.0288 48.379 42.6803C47.9773 42.5962 45.5629 43.3704 43.014 44.4007C36.9173 46.8649 30.0402 48.8407 27.5575 48.8407C23.1813 48.8407 25.2879 45.4466 31.1422 43.0638C32.6777 42.439 33.9339 41.7201 33.9339 41.4662C33.9339 40.6993 31.4173 41.0305 24.1207 42.7566ZM79.8328 47.9996C79.502 48.3988 77.2636 49.7263 74.858 50.9487C70.7856 53.0196 70.2708 53.1528 67.3718 52.8895L64.2586 52.6064L63.0316 54.507C62.3568 55.5523 60.5264 57.1739 58.9644 58.1096L56.1237 59.8116H58.2896C65.3522 59.8116 75.7693 54.4949 79.7844 48.8413C80.9088 47.2578 80.9432 46.6575 79.8328 47.9996ZM24.5522 52.8895C24.5501 53.6794 24.1984 54.9996 23.7706 55.8224C22.6275 58.0197 22.8202 58.5886 24.2505 57.2408C25.6651 55.9086 26.3174 53.949 25.8438 52.4533C25.3733 50.9665 24.5558 51.2428 24.5522 52.8895ZM2.52128 61.3329L1.6251 62.8542L3.58107 64.3823C8.39698 68.1438 18.8807 74.4395 20.3276 74.4395C20.8987 74.4395 22.4712 71.4596 22.4712 70.3777C22.4712 70.1363 21.5922 69.5496 20.5173 69.0742C19.4429 68.5988 15.3981 66.3242 11.5294 64.0187C7.66076 61.7138 4.2532 59.8242 3.95673 59.8195C3.66026 59.8153 3.01418 60.4965 2.52128 61.3329Z" fill="black"/>
</svg>
